<svg width="18" height="17" viewBox="0 0 18 17" fill="none" xmlns="http://www.w3.org/2000/svg">
<path d="M10.0879 16.2066L17.4106 8.87376C17.7647 8.52293 17.7647 7.94961 17.4106 7.59502L10.0879 0.26594C9.73755 -0.0886468 9.16499 -0.0886468 8.81092 0.26594L7.97468 1.10334C7.61307 1.46169 7.62058 2.04635 7.98976 2.39715L12.5288 6.72745H1.70287C1.20189 6.72745 0.798828 7.13106 0.798828 7.63274V8.83979C0.798828 9.34147 1.20189 9.74509 1.70287 9.74509H12.5288L7.98976 14.0754C7.62437 14.4262 7.61683 15.0108 7.97468 15.3692L8.81092 16.2066C9.16123 16.5612 9.7338 16.5612 10.0879 16.2066Z" fill="#5A7184"/>
</svg>
