<svg width="84" height="84" viewBox="0 0 84 84" fill="none" xmlns="http://www.w3.org/2000/svg">
<path d="M83.4287 2.5017C83.237 1.5182 82.4682 0.749414 81.4845 0.557668C69.3506 -1.8084 54.046 3.47044 40.991 14.1908C37.5975 12.5435 33.697 11.9314 29.9396 12.4708C25.8511 13.0579 22.1484 14.9099 19.2317 17.8266L3.33795 33.7204C2.66463 34.3937 2.44008 35.3954 2.76206 36.2916C3.08404 37.188 3.89416 37.8181 4.8424 37.9091L21.0016 39.4619C20.7052 40.0941 20.4198 40.7275 20.1485 41.3625C18.8317 44.4442 19.4855 47.8303 21.855 50.1997L33.7864 62.1311C35.3464 63.6911 37.347 64.5075 39.4113 64.5075C40.4824 64.5075 41.5709 64.2877 42.6236 63.8378C43.2675 63.5627 43.9099 63.2732 44.5509 62.9722L46.1078 79.1745C46.199 80.1224 46.829 80.9327 47.7253 81.2547C47.9967 81.3521 48.2779 81.3995 48.5566 81.3995C49.1981 81.3995 49.8271 81.1482 50.2965 80.6788L66.1905 64.785C71.964 59.0113 73.3618 50.2302 69.8074 42.9858C80.5678 29.8886 85.772 14.5197 83.4287 2.5017ZM49.1887 54.8119L29.1743 34.7975C31.8619 30.5598 35.1314 26.4875 38.8684 22.7505C45.2157 16.4032 52.3787 11.5305 59.4879 8.49339L75.4794 24.4849C73.0574 30.1653 69.4656 35.8935 64.8694 41.2114C63.7183 42.5433 62.4958 43.8575 61.2357 45.1177C57.4987 48.8549 53.4265 52.1245 49.1887 54.8119ZM75.3939 4.90828C76.5762 4.90828 77.7361 4.97816 78.8657 5.11971C79.4119 9.50937 78.8642 14.3749 77.3421 19.3885L64.583 6.62957C68.3029 5.50025 71.9494 4.90828 75.3939 4.90828ZM10.507 33.5103L22.711 21.3061C26.4146 17.6026 31.9468 16.3243 36.8623 17.8373C36.3668 18.3074 35.8752 18.7849 35.3889 19.2712C30.6459 24.0142 26.5983 29.2763 23.4537 34.7544L10.507 33.5103ZM40.6899 59.3133C39.4781 59.8311 38.198 59.5839 37.2658 58.6519L25.3345 46.7206C24.4025 45.7886 24.1554 44.5087 24.6733 43.2965C25.2593 41.9253 25.9102 40.5593 26.6219 39.2039L44.7825 57.3647C43.4271 58.0764 42.0611 58.7272 40.6899 59.3133ZM62.7112 61.3059L50.5068 73.51L49.2584 60.5174C54.7272 57.375 59.9801 53.3327 64.7154 48.5973C65.2073 48.1056 65.6912 47.604 66.1706 47.0985C67.733 52.0286 66.4831 57.5339 62.7112 61.3059Z" fill="#36B37E"/>
<path d="M59.9366 24.0503C56.8042 20.9181 51.7078 20.9182 48.5757 24.0503C45.4435 27.1825 45.4435 32.279 48.5757 35.4112C50.093 36.9284 52.1103 37.7641 54.2563 37.7641C56.4021 37.7641 58.4194 36.9284 59.9366 35.4112C63.0687 32.279 63.0687 27.1825 59.9366 24.0503ZM56.4572 31.9317C55.8693 32.5196 55.0876 32.8434 54.2563 32.8434C53.4248 32.8434 52.6431 32.5196 52.0552 31.9317C50.8418 30.7181 50.8418 28.7434 52.0552 27.5298C52.6619 26.923 53.4591 26.6196 54.2561 26.6196C55.0533 26.6196 55.8504 26.923 56.4572 27.5298C57.6706 28.7434 57.6706 30.7181 56.4572 31.9317Z" fill="#36B37E"/>
<path d="M24.0527 59.9648C23.092 59.0039 21.534 59.0039 20.5732 59.9648L0.738225 79.7997C-0.222637 80.7606 -0.222637 82.3184 0.738225 83.2792C1.21866 83.7596 1.84835 83.9999 2.47788 83.9999C3.10741 83.9999 3.73727 83.7598 4.21754 83.2792L24.0525 63.4443C25.0135 62.4834 25.0135 60.9256 24.0527 59.9648Z" fill="#36B37E"/>
<path d="M9.47161 62.2625L16.1709 55.5633C17.1318 54.6025 17.1318 53.0447 16.1709 52.0839C15.2104 51.123 13.6525 51.1232 12.6914 52.0839L5.99213 58.783C5.03127 59.7439 5.03127 61.3016 5.99213 62.2625C6.47256 62.7429 7.10226 62.9832 7.73179 62.9832C8.36148 62.983 8.99134 62.7427 9.47161 62.2625Z" fill="#36B37E"/>
<path d="M28.4549 67.8456L21.7558 74.5448C20.7949 75.5056 20.7949 77.0634 21.7558 78.0243C22.2362 78.5047 22.8659 78.745 23.4955 78.745C24.125 78.745 24.7549 78.5049 25.2351 78.0243L31.9343 71.3251C32.8951 70.3643 32.8951 68.8065 31.9343 67.8456C30.9736 66.8848 29.4156 66.8848 28.4549 67.8456Z" fill="#36B37E"/>
</svg>
