<svg width="84" height="84" viewBox="0 0 84 84" fill="none" xmlns="http://www.w3.org/2000/svg">
<g clip-path="url(#clip0_167_165)">
<path d="M83.2791 72.7742L76.7166 66.2117C75.7555 65.2506 74.1974 65.2506 73.2364 66.2117C72.2753 67.1728 72.2753 68.7309 73.2364 69.6919L75.5979 72.0535H59.998C62.4983 70.5649 64.8306 68.7553 66.9419 66.644C73.6044 59.9817 77.2735 51.1238 77.2735 41.7019C77.2735 32.28 73.6044 23.4221 66.9419 16.76C61.7486 11.5666 55.2207 8.19246 48.1317 6.95691L50.6914 4.80916C51.7325 3.93553 51.8684 2.38317 50.9947 1.34203C50.1211 0.300891 48.5689 0.165047 47.5276 1.03868L40.4181 7.00416C39.377 7.87779 39.2411 9.43015 40.1148 10.4713L46.0803 17.5808C46.9539 18.6219 48.5062 18.7578 49.5474 17.8841C50.5885 17.0105 50.7244 15.4583 49.8507 14.417L47.7297 11.8893C53.6542 13.0151 59.104 15.8826 63.4619 20.2402C69.2044 25.9824 72.3624 33.6207 72.3516 41.7432C72.3409 49.7884 69.1506 57.4752 63.4617 63.1641C51.6277 74.9979 32.3723 74.9979 20.5385 63.1641C14.8493 57.4749 11.6588 49.7874 11.6485 41.7418C11.6381 33.6197 14.7962 25.9823 20.5382 20.2401C23.6874 17.0909 27.4419 14.7171 31.6989 13.1837C32.8194 12.7801 33.5449 11.656 33.3557 10.48C33.1026 8.90564 31.5164 8.02085 30.0909 8.53158C25.1229 10.3113 20.7379 13.0797 17.0581 16.7596C10.3957 23.4221 6.72658 32.28 6.72658 41.7019C6.72658 51.1238 10.3957 59.9817 17.0581 66.644C19.1694 68.7553 21.5017 70.5648 24.002 72.0535H2.53052C1.20539 72.0535 0.065154 73.0718 0.00281026 74.3955C-0.0637991 75.8087 1.06233 76.9753 2.46096 76.9753H75.5979L73.2364 79.3369C72.2753 80.2979 72.2753 81.856 73.2364 82.8171C74.1974 83.7782 75.7555 83.7782 76.7166 82.8171L83.2791 76.2546C84.2402 75.2934 84.2402 73.7353 83.2791 72.7742Z" fill="#36B37E"/>
<path d="M23.1328 41.7012C23.1328 52.1045 31.5966 60.5684 42 60.5684C52.4034 60.5684 60.8672 52.1045 60.8672 41.7012C60.8672 31.2978 52.4034 22.834 42 22.834C31.5966 22.834 23.1328 31.2978 23.1328 41.7012ZM42 27.7559C49.6894 27.7559 55.9453 34.0117 55.9453 41.7012C55.9453 49.3906 49.6894 55.6465 42 55.6465C34.3106 55.6465 28.0547 49.3906 28.0547 41.7012C28.0547 34.0117 34.3106 27.7559 42 27.7559Z" fill="#36B37E"/>
<path d="M36.5391 48.0827C37.5002 49.0438 39.0583 49.0438 40.0194 48.0827L49.3001 38.802C50.289 37.8132 50.2605 36.1918 49.2139 35.2397C48.2338 34.3479 46.7075 34.4342 45.7704 35.3711L38.2792 42.8624L36.5883 41.1715C35.6514 40.2346 34.1249 40.1483 33.1448 41.0401C32.0984 41.9922 32.0697 43.6136 33.0587 44.6024L36.5391 48.0827Z" fill="#36B37E"/>
</g>
<defs>
<clipPath id="clip0_167_165">
<rect width="84" height="84" fill="white"/>
</clipPath>
</defs>
</svg>
