<svg width="44" height="44" viewBox="0 0 44 44" fill="none" xmlns="http://www.w3.org/2000/svg">
<path fill-rule="evenodd" clip-rule="evenodd" d="M21.2725 0.193127C21.4941 0.0665677 21.7448 0 22 0C22.2552 0 22.5059 0.0665677 22.7275 0.193127L43.2608 11.9265C43.4853 12.0547 43.6719 12.24 43.8017 12.4635C43.9315 12.6871 43.9999 12.941 44 13.1995V15.3115C44 28.6054 35.1853 40.2918 22.4019 43.9409C22.1392 44.0157 21.8608 44.0157 21.5981 43.9409C15.3765 42.1633 9.90313 38.4075 6.00621 33.242C2.10929 28.0764 0.000881012 21.7822 0 15.3115L0 13.1995C8.3386e-05 12.941 0.068497 12.6871 0.198309 12.4635C0.328122 12.24 0.514721 12.0547 0.7392 11.9265L21.2725 0.193127ZM20.7445 31.4185L33.4107 15.5814L31.1227 13.751L20.3221 27.2473L12.672 20.8731L10.7947 23.1259L20.7445 31.4185Z" fill="white"/>
</svg>
