<svg width="84" height="84" viewBox="0 0 84 84" fill="none" xmlns="http://www.w3.org/2000/svg">
<path d="M54.1875 8.69349C53.8999 7.79492 53.1237 7.13999 52.1895 7.00742L46.659 6.22271L44.1963 1.35089C43.7776 0.522374 42.9282 0 42.0001 0C41.072 0 40.2227 0.522374 39.8038 1.35072L37.3412 6.22255L31.8107 7.00726C30.8765 7.13982 30.1004 7.79476 29.8126 8.69333C29.5248 9.5919 29.7763 10.5759 30.4598 11.2264L34.4262 15.0014L33.4925 20.3165C33.3309 21.2365 33.7042 22.1689 34.4562 22.7231C35.2083 23.2775 36.2092 23.3582 37.0402 22.9316L42.0001 20.3857L46.96 22.9316C47.7909 23.3582 48.792 23.2775 49.544 22.7233C50.2959 22.1689 50.6692 21.2367 50.5076 20.3166L49.574 15.0015L53.5404 11.2266C54.2239 10.5761 54.4752 9.59222 54.1875 8.69349ZM45.2253 12.3454C44.6284 12.9133 44.3554 13.7423 44.498 14.5538L44.8033 16.2922L43.1238 15.43C42.4182 15.0678 41.5814 15.068 40.8761 15.43L39.1965 16.2922L39.5018 14.5538C39.6444 13.7423 39.3714 12.9133 38.7745 12.3454L37.5355 11.1662L39.3038 10.9154C40.1003 10.8023 40.7915 10.307 41.1544 9.58911L42 7.91616L42.8455 9.58911C43.2084 10.3072 43.8995 10.8025 44.6962 10.9154L46.4643 11.1662L45.2253 12.3454Z" fill="#36B37E"/>
<path d="M83.883 23.623C83.5954 22.7244 82.8192 22.0695 81.885 21.9369L76.3545 21.1522L73.8918 16.2804C73.4731 15.4519 72.6237 14.9297 71.6955 14.9297C70.7672 14.9297 69.9179 15.4521 69.4992 16.2804L67.0364 21.1522L61.5059 21.9369C60.5719 22.0695 59.7955 22.7244 59.5079 23.623C59.2202 24.5216 59.4715 25.5056 60.155 26.1561L64.1214 29.931L63.1879 35.2462C63.0263 36.1662 63.3995 37.0986 64.1514 37.6528C64.9035 38.2072 65.9042 38.2877 66.7354 37.8613L71.6953 35.3154L76.6552 37.8613C77.486 38.2879 78.4872 38.2072 79.2392 37.653C79.9911 37.0986 80.3644 36.1664 80.2028 35.2463L79.2692 29.9312L83.2356 26.1563C83.9193 25.5056 84.1708 24.5217 83.883 23.623ZM74.9209 27.275C74.3241 27.843 74.0511 28.672 74.1936 29.4835L74.499 31.2219L72.8193 30.3597C72.114 29.9977 71.2771 29.9977 70.5718 30.3597L68.8921 31.2219L69.1975 29.4835C69.34 28.672 69.067 27.843 68.4702 27.275L67.2312 26.0959L68.9993 25.8451C69.7958 25.732 70.4868 25.2367 70.8497 24.5188L71.6953 22.8459L72.5409 24.5188C72.9038 25.2369 73.5948 25.7322 74.3913 25.8451L76.1594 26.0959L74.9209 27.275Z" fill="#36B37E"/>
<path d="M24.4923 23.623C24.2047 22.7244 23.4286 22.0695 22.4942 21.9369L16.9637 21.1522L14.5011 16.2804C14.0823 15.4521 13.2329 14.9297 12.3048 14.9297C11.3767 14.9297 10.5274 15.4521 10.1085 16.2804L7.64594 21.1522L2.1154 21.9369C1.18123 22.0695 0.405056 22.7244 0.117291 23.623C-0.170474 24.5216 0.0810331 25.5056 0.764516 26.1561L4.73088 29.931L3.7972 35.2462C3.6356 36.1662 4.00884 37.0986 4.76091 37.6528C5.51297 38.2072 6.51407 38.2879 7.34488 37.8613L12.3048 35.3154L17.2647 37.8613C18.0955 38.2879 19.0968 38.2072 19.8487 37.6528C20.6006 37.0984 20.9739 36.1662 20.8124 35.2462L19.8787 29.931L23.8451 26.1561C24.5286 25.5056 24.7801 24.5217 24.4923 23.623ZM15.5301 27.275C14.9332 27.843 14.6602 28.672 14.8028 29.4835L15.1081 31.2219L13.4286 30.3597C12.7232 29.9977 11.8866 29.9975 11.181 30.3597L9.50132 31.2219L9.80664 29.4835C9.94921 28.672 9.67621 27.843 9.07935 27.275L7.84035 26.0959L9.60845 25.8451C10.405 25.732 11.0962 25.2367 11.4591 24.5188L12.3046 22.8459L13.1502 24.5188C13.5131 25.2369 14.2042 25.7322 15.0008 25.8451L16.7689 26.0959L15.5301 27.275Z" fill="#36B37E"/>
<path d="M50.9505 53.735C54.4825 51.0346 56.7656 46.7793 56.7656 42C56.7656 33.8582 50.1417 27.2344 42 27.2344C33.8582 27.2344 27.2344 33.8582 27.2344 42C27.2344 46.7791 29.5175 51.0346 33.0494 53.735C25.2828 57.18 19.8516 64.9633 19.8516 73.9921V81.539C19.8516 82.898 20.9534 83.9999 22.3125 83.9999H61.6874C63.0465 83.9999 64.1484 82.898 64.1484 81.539V73.9921C64.1484 64.9633 58.7169 57.18 50.9505 53.735ZM32.1562 42C32.1562 36.5721 36.5721 32.1562 42 32.1562C47.4278 32.1562 51.8437 36.5721 51.8437 42C51.8437 47.4278 47.4278 51.8437 42 51.8437C36.5721 51.8437 32.1562 47.428 32.1562 42ZM59.2265 79.078H24.7734V73.9921C24.7734 64.4934 32.5013 56.7656 42 56.7656C51.4987 56.7656 59.2265 64.4934 59.2265 73.9921V79.078Z" fill="#36B37E"/>
</svg>
