<svg width="24" height="25" viewBox="0 0 24 25" fill="none" xmlns="http://www.w3.org/2000/svg">
<path d="M12 2.14062C14.717 2.14062 15.056 2.15062 16.122 2.20062C17.187 2.25062 17.912 2.41763 18.55 2.66563C19.21 2.91963 19.766 3.26362 20.322 3.81862C20.8305 4.31852 21.224 4.92321 21.475 5.59062C21.722 6.22762 21.89 6.95362 21.94 8.01862C21.987 9.08462 22 9.42362 22 12.1406C22 14.8576 21.99 15.1966 21.94 16.2626C21.89 17.3276 21.722 18.0526 21.475 18.6906C21.2247 19.3584 20.8311 19.9632 20.322 20.4626C19.822 20.9709 19.2173 21.3644 18.55 21.6156C17.913 21.8626 17.187 22.0306 16.122 22.0806C15.056 22.1276 14.717 22.1406 12 22.1406C9.283 22.1406 8.944 22.1306 7.878 22.0806C6.813 22.0306 6.088 21.8626 5.45 21.6156C4.78233 21.3651 4.17753 20.9716 3.678 20.4626C3.16941 19.9628 2.77593 19.3581 2.525 18.6906C2.277 18.0536 2.11 17.3276 2.06 16.2626C2.013 15.1966 2 14.8576 2 12.1406C2 9.42362 2.01 9.08462 2.06 8.01862C2.11 6.95262 2.277 6.22862 2.525 5.59062C2.77524 4.9228 3.1688 4.31795 3.678 3.81862C4.17767 3.30986 4.78243 2.91635 5.45 2.66563C6.088 2.41763 6.812 2.25062 7.878 2.20062C8.944 2.15362 9.283 2.14062 12 2.14062ZM12 7.14062C10.6739 7.14063 9.40215 7.66741 8.46447 8.60509C7.52678 9.54277 7 10.8145 7 12.1406C7 13.4667 7.52678 14.7385 8.46447 15.6762C9.40215 16.6138 10.6739 17.1406 12 17.1406C13.3261 17.1406 14.5979 16.6138 15.5355 15.6762C16.4732 14.7385 17 13.4667 17 12.1406C17 10.8145 16.4732 9.54277 15.5355 8.60509C14.5979 7.66741 13.3261 7.14062 12 7.14062V7.14062ZM18.5 6.89062C18.5 6.5591 18.3683 6.24116 18.1339 6.00674C17.8995 5.77232 17.5815 5.64062 17.25 5.64062C16.9185 5.64062 16.6005 5.77232 16.3661 6.00674C16.1317 6.24116 16 6.5591 16 6.89062C16 7.22215 16.1317 7.54009 16.3661 7.77451C16.6005 8.00893 16.9185 8.14062 17.25 8.14062C17.5815 8.14062 17.8995 8.00893 18.1339 7.77451C18.3683 7.54009 18.5 7.22215 18.5 6.89062ZM12 9.14062C12.7956 9.14062 13.5587 9.4567 14.1213 10.0193C14.6839 10.5819 15 11.345 15 12.1406C15 12.9363 14.6839 13.6993 14.1213 14.2619C13.5587 14.8246 12.7956 15.1406 12 15.1406C11.2044 15.1406 10.4413 14.8246 9.87868 14.2619C9.31607 13.6993 9 12.9363 9 12.1406C9 11.345 9.31607 10.5819 9.87868 10.0193C10.4413 9.4567 11.2044 9.14063 12 9.14062V9.14062Z" fill="black"/>
</svg>
