<svg width="24" height="25" viewBox="0 0 24 25" fill="none" xmlns="http://www.w3.org/2000/svg">
<path d="M18.335 18.4796H15.67V14.3026C15.67 13.3066 15.65 12.0246 14.28 12.0246C12.891 12.0246 12.679 13.1086 12.679 14.2296V18.4796H10.013V9.89062H12.573V11.0606H12.608C12.966 10.3866 13.836 9.67362 15.136 9.67362C17.836 9.67362 18.336 11.4516 18.336 13.7646V18.4796H18.335ZM7.003 8.71562C6.79956 8.71589 6.59806 8.67599 6.41006 8.59823C6.22207 8.52047 6.05127 8.40636 5.90746 8.26246C5.76365 8.11856 5.64965 7.94768 5.57201 7.75964C5.49437 7.57159 5.4546 7.37007 5.455 7.16663C5.4552 6.86046 5.54618 6.56123 5.71644 6.30677C5.8867 6.05231 6.12859 5.85406 6.41153 5.73708C6.69447 5.6201 7.00574 5.58964 7.30598 5.64957C7.60622 5.70949 7.88196 5.8571 8.09831 6.07373C8.31466 6.29036 8.46191 6.56629 8.52145 6.86661C8.58099 7.16693 8.55013 7.47816 8.43278 7.76094C8.31544 8.04373 8.11687 8.28536 7.86219 8.4553C7.60751 8.62523 7.30817 8.71582 7.002 8.71562H7.003ZM8.339 18.4796H5.666V9.89062H8.34V18.4796H8.339ZM19.67 3.14062H4.329C3.593 3.14062 3 3.72062 3 4.43762V19.8436C3 20.5606 3.594 21.1406 4.328 21.1406H19.666C20.4 21.1406 21 20.5606 21 19.8436V4.43762C21 3.72062 20.4 3.14062 19.666 3.14062H19.669H19.67Z" fill="black"/>
</svg>
