<svg width="54" height="54" viewBox="0 0 54 54" fill="none" xmlns="http://www.w3.org/2000/svg">
<g clip-path="url(#clip0_167_263)">
<path d="M35.3734 15.4626C36.0676 16.1568 37.214 16.0551 37.7795 15.2634L41.7346 9.72634C42.2424 9.01538 42.0778 8.02735 41.3668 7.51941C40.6558 7.01158 39.6678 7.17621 39.1599 7.88728L36.2903 11.9047L34.4468 10.0612C33.8291 9.44337 32.8273 9.44337 32.2095 10.0612C31.5916 10.679 31.5916 11.6807 32.2095 12.2985L35.3734 15.4626Z" fill="#36B37E"/>
<path d="M20.8629 33.1353C20.2451 32.5174 19.2434 32.5174 18.6256 33.1353L17.5069 34.254L16.3882 33.1353C15.7705 32.5174 14.7687 32.5174 14.1509 33.1353C13.533 33.7531 13.533 34.7547 14.1509 35.3726L15.2696 36.4913L14.1509 37.6099C13.533 38.2277 13.533 39.2294 14.1509 39.8472C14.7686 40.4649 15.7702 40.4651 16.3882 39.8472L17.5069 38.7286L18.6256 39.8473C19.2433 40.4651 20.2451 40.4651 20.8629 39.8473C21.4807 39.2295 21.4807 38.2278 20.8629 37.61L19.7442 36.4913L20.8629 35.3727C21.4807 34.7548 21.4807 33.7531 20.8629 33.1353Z" fill="#36B37E"/>
<path d="M11.0742 25.418C10.6546 25.418 10.2522 25.5846 9.95555 25.8813L0.46337 35.3735C-0.15204 35.9889 -0.154782 36.9858 0.457147 37.6047L9.94933 47.2023C10.2464 47.5028 10.6515 47.6719 11.0742 47.6719H22.2538V52.418C22.2538 53.2917 22.9622 54 23.8359 54H30.164C31.0377 54 31.746 53.2917 31.746 52.418V47.6719H42.8202C43.6939 47.6719 44.4023 46.9635 44.4023 46.0898V27C44.4023 26.1263 43.6939 25.418 42.8202 25.418H31.746V22.2539H42.9257C43.3453 22.2539 43.7476 22.0873 44.0443 21.7906L53.5365 12.2984C54.1519 11.683 54.1547 10.6861 53.5427 10.0672L44.0505 0.469547C43.7534 0.169066 43.3483 0 42.9257 0H11.1796C10.3059 0 9.59759 0.708328 9.59759 1.58203V20.6719C9.59759 21.5456 10.3059 22.2539 11.1796 22.2539H22.2538V25.418H11.0742ZM28.582 50.8359H25.4179V47.6719H28.582V50.8359ZM41.2382 44.5078H11.7346L3.81316 36.4983L11.7294 28.582H41.2382V44.5078ZM12.7617 3.16406H42.2653L50.1867 11.1736L42.2704 19.0898H12.7617V3.16406ZM25.4179 22.2539H28.582V25.418H25.4179V22.2539Z" fill="#36B37E"/>
</g>
<defs>
<clipPath id="clip0_167_263">
<rect width="54" height="54" fill="white"/>
</clipPath>
</defs>
</svg>
