<svg width="84" height="84" viewBox="0 0 84 84" fill="none" xmlns="http://www.w3.org/2000/svg">
<path d="M65.0508 46.1016C60.7089 46.1016 56.7043 47.5704 53.5054 50.0359C53.0723 49.6558 52.5062 49.4237 51.8846 49.4237H42.7509C49.7569 44.5039 54.3455 36.3646 54.3455 27.1727C54.3455 12.1897 42.1559 0 27.1729 0C12.1898 0 0.000164063 12.1897 0.000164063 27.1729C0.000164063 36.3648 4.58883 44.5041 11.5948 49.4238H2.46094C1.10184 49.4238 0 50.5257 0 51.8848V81.5391C0 82.8982 1.10184 84 2.46094 84H51.8846C53.2437 84 54.3455 82.8982 54.3455 81.5391V80.6776C57.3935 82.7722 61.0811 84 65.0508 84C75.4994 84 84 75.4994 84 65.0508C84 54.6021 75.4994 46.1016 65.0508 46.1016ZM4.92204 27.1729C4.92204 14.9036 14.9038 4.92188 27.1729 4.92188C39.4419 4.92188 49.4237 14.9036 49.4237 27.1729C49.4237 39.4421 39.4419 49.4238 27.1729 49.4238C14.9038 49.4238 4.92204 39.4419 4.92204 27.1729ZM65.0508 79.0781C57.3161 79.0781 51.0234 72.7855 51.0234 65.0508C51.0234 57.3161 57.3161 51.0234 65.0508 51.0234C72.7855 51.0234 79.0781 57.3161 79.0781 65.0508C79.0781 72.7855 72.7855 79.0781 65.0508 79.0781ZM46.559 69.1934H4.92188V64.2305H46.1204C46.1088 64.5026 46.1016 64.7758 46.1016 65.0508C46.1016 66.4734 46.2604 67.8594 46.559 69.1934ZM4.92188 54.3457H49.4237V54.3462C48.3851 55.8575 47.5599 57.5262 46.9918 59.3086H4.92188V54.3457ZM4.92188 79.0781V74.1152H48.4142C48.7233 74.6801 49.0608 75.2272 49.4237 75.7555V79.0781H4.92188Z" fill="#36B37E"/>
<path d="M71.7339 58.3673C70.7909 57.4243 69.1963 57.4246 68.2536 58.3673C64.9588 61.6622 61.6637 64.9572 58.3689 68.2521C57.4291 69.192 57.4291 70.7926 58.3689 71.7323C59.3119 72.6753 60.9064 72.675 61.8491 71.7323C65.144 68.4374 68.439 65.1424 71.7339 61.8476C72.6736 60.9078 72.6736 59.3072 71.7339 58.3673Z" fill="#36B37E"/>
<path d="M60.1075 62.5703C61.3948 62.5703 62.628 61.4384 62.5685 60.1094C62.5088 58.776 61.4871 57.6484 60.1075 57.6484C58.8203 57.6484 57.587 58.7803 57.6466 60.1094C57.7063 61.4427 58.7279 62.5703 60.1075 62.5703Z" fill="#36B37E"/>
<path d="M69.9923 67.5312C68.7051 67.5312 67.4718 68.6631 67.5314 69.9922C67.5911 71.3255 68.6127 72.4531 69.9923 72.4531C71.2795 72.4531 72.5128 71.3213 72.4532 69.9922C72.3935 68.6589 71.3719 67.5312 69.9923 67.5312Z" fill="#36B37E"/>
<path d="M29.6338 42V39.0963C32.5096 38.0794 34.5762 35.3348 34.5762 32.1151C34.5762 28.0329 31.2551 24.7117 27.1729 24.7117C26.51 24.7117 25.8868 24.4537 25.4182 23.985C24.9496 23.5164 24.6914 22.8931 24.6914 22.2303C24.6914 20.8624 25.8042 19.7494 27.172 19.749H27.1729H27.1745H32.1152C33.4743 19.749 34.5762 18.6472 34.5762 17.2881C34.5762 15.929 33.4743 14.8271 32.1152 14.8271H29.6338V12.3457C29.6338 10.9866 28.5319 9.88477 27.1729 9.88477C25.8138 9.88477 24.7119 10.9866 24.7119 12.3457V15.2493C21.8361 16.2661 19.7695 19.0109 19.7695 22.2305C19.7695 24.2079 20.5395 26.0671 21.9379 27.4654C23.3364 28.8637 25.1954 29.6338 27.1729 29.6336C28.5411 29.6336 29.6543 30.7468 29.6543 32.1151C29.6543 33.4834 28.5411 34.5965 27.1729 34.5965H22.2305C20.8714 34.5965 19.7695 35.6984 19.7695 37.0575C19.7695 38.4165 20.8714 39.5184 22.2305 39.5184H24.7119V42C24.7119 43.3591 25.8138 44.4609 27.1729 44.4609C28.5319 44.4609 29.6338 43.3591 29.6338 42Z" fill="#36B37E"/>
</svg>
