<svg width="24" height="25" viewBox="0 0 24 25" fill="none" xmlns="http://www.w3.org/2000/svg">
<path d="M4 3.14062H20C20.2652 3.14063 20.5196 3.24598 20.7071 3.43352C20.8946 3.62105 21 3.87541 21 4.14062V20.1406C21 20.4058 20.8946 20.6602 20.7071 20.8477C20.5196 21.0353 20.2652 21.1406 20 21.1406H4C3.73478 21.1406 3.48043 21.0353 3.29289 20.8477C3.10536 20.6602 3 20.4058 3 20.1406V4.14062C3 3.87541 3.10536 3.62105 3.29289 3.43352C3.48043 3.24598 3.73478 3.14063 4 3.14062V3.14062ZM17.3 16.0806C17.2 16.0306 17.15 15.8806 17.15 15.7796V8.14662C17.15 8.04662 17.2 7.89663 17.3 7.79563L18.255 6.69063V6.64062H14.84L12.28 13.1186L9.366 6.64062H5.852V6.69063L6.755 7.94663C6.956 8.14663 7.006 8.44863 7.006 8.69963V14.2226C7.056 14.5246 7.006 14.8756 6.856 15.1766L5.5 17.0346V17.0846H9.116V17.0346L7.76 15.2276C7.61 14.9256 7.559 14.6246 7.61 14.2736V9.25062C7.66 9.35062 7.71 9.35063 7.76 9.55163L11.174 17.1846H11.224L14.54 8.90063C14.49 9.20063 14.49 9.55262 14.49 9.80462V15.7296C14.49 15.8796 14.44 15.9796 14.34 16.0806L13.335 17.0346V17.0846H18.256V17.0346L17.302 16.0806H17.3Z" fill="black"/>
</svg>
