<svg width="84" height="84" viewBox="0 0 84 84" fill="none" xmlns="http://www.w3.org/2000/svg">
<path d="M19.0312 21.6562H12.4688C11.1097 21.6562 10.0078 22.7581 10.0078 24.1172C10.0078 25.4763 11.1097 26.5781 12.4688 26.5781H19.0312C20.3903 26.5781 21.4922 25.4763 21.4922 24.1172C21.4922 22.7581 20.3903 21.6562 19.0312 21.6562Z" fill="#36B37E"/>
<path d="M28.875 26.5781H51.8438C53.2028 26.5781 54.3047 25.4763 54.3047 24.1172C54.3047 22.7581 53.2028 21.6562 51.8438 21.6562H28.875C27.5159 21.6562 26.4141 22.7581 26.4141 24.1172C26.4141 25.4763 27.5159 26.5781 28.875 26.5781Z" fill="#36B37E"/>
<path d="M19.0312 33.1406H12.4688C11.1097 33.1406 10.0078 34.2425 10.0078 35.6016C10.0078 36.9607 11.1097 38.0625 12.4688 38.0625H19.0312C20.3903 38.0625 21.4922 36.9607 21.4922 35.6016C21.4922 34.2425 20.3903 33.1406 19.0312 33.1406Z" fill="#36B37E"/>
<path d="M28.875 38.0625H51.8438C53.2028 38.0625 54.3047 36.9607 54.3047 35.6016C54.3047 34.2425 53.2028 33.1406 51.8438 33.1406H28.875C27.5159 33.1406 26.4141 34.2425 26.4141 35.6016C26.4141 36.9607 27.5159 38.0625 28.875 38.0625Z" fill="#36B37E"/>
<path d="M19.0312 44.625H12.4688C11.1097 44.625 10.0078 45.7268 10.0078 47.0859C10.0078 48.445 11.1097 49.5469 12.4688 49.5469H19.0312C20.3903 49.5469 21.4922 48.445 21.4922 47.0859C21.4922 45.7268 20.3903 44.625 19.0312 44.625Z" fill="#36B37E"/>
<path d="M19.0312 56.1094H12.4688C11.1097 56.1094 10.0078 57.2112 10.0078 58.5703C10.0078 59.9294 11.1097 61.0312 12.4688 61.0312H19.0312C20.3903 61.0312 21.4922 59.9294 21.4922 58.5703C21.4922 57.2112 20.3903 56.1094 19.0312 56.1094Z" fill="#36B37E"/>
<path d="M19.0312 67.5938H12.4688C11.1097 67.5938 10.0078 68.6956 10.0078 70.0547C10.0078 71.4138 11.1097 72.5156 12.4688 72.5156H19.0312C20.3903 72.5156 21.4922 71.4138 21.4922 70.0547C21.4922 68.6956 20.3903 67.5938 19.0312 67.5938Z" fill="#36B37E"/>
<path d="M64.0821 60.2017C63.7965 60.1009 63.5054 59.9959 63.2142 59.8877V54.5865C63.7154 54.7714 63.9763 55.0225 64.0135 55.0604C64.6104 55.7337 65.6392 55.8008 66.3188 55.2088C67.0019 54.6138 67.0734 53.5774 66.4782 52.8942C65.933 52.2683 64.8071 51.484 63.2142 51.2082V50.3672C63.2142 49.4612 62.4795 48.7266 61.5736 48.7266C60.6676 48.7266 59.933 49.4612 59.933 50.3672V51.3881C59.8319 51.4149 59.7298 51.4434 59.627 51.4744C57.6823 52.0601 56.2301 53.7203 55.8368 55.8068C55.476 57.7216 56.0977 59.5742 57.4592 60.6421C58.1019 61.1461 58.8851 61.6083 59.933 62.0886V69.018C59.1914 68.9136 58.6362 68.6616 57.7499 68.082C56.9918 67.5857 55.9746 67.7985 55.4788 68.5568C54.9829 69.3151 55.1952 70.3318 55.9536 70.8279C57.5102 71.8463 58.6083 72.2041 59.933 72.3186V73.3359C59.933 74.2419 60.6676 74.9766 61.5736 74.9766C62.4795 74.9766 63.2142 74.2419 63.2142 73.3359V72.1609C65.9403 71.4694 67.6875 69.1409 68.0736 66.8448C68.57 63.891 66.966 61.2212 64.0821 60.2017ZM59.933 58.3762C59.7715 58.2727 59.6209 58.1675 59.4842 58.0602C59.0962 57.7561 58.9304 57.11 59.0615 56.4145C59.1564 55.9104 59.4324 55.3293 59.933 54.9452V58.3762ZM64.8376 66.3009C64.6881 67.1902 64.1369 68.125 63.214 68.6534V63.3836C64.9895 64.1314 64.9454 65.6596 64.8376 66.3009Z" fill="#36B37E"/>
<path d="M64.1484 39.8406V13.9453C64.1484 9.87443 60.8365 6.5625 56.7656 6.5625H46.055C45.6453 2.87634 42.5124 0 38.7188 0H25.5938C21.8001 0 18.6672 2.87634 18.2575 6.5625H7.54688C3.47599 6.5625 0.164062 9.87443 0.164062 13.9453V76.6172C0.164062 80.6881 3.47599 84 7.54688 84H61.6875C73.9001 84 83.8359 74.0642 83.8359 61.8516C83.8359 50.4707 75.2072 41.0688 64.1484 39.8406ZM23.1328 7.38281C23.1328 6.02585 24.2368 4.92188 25.5938 4.92188H38.7188C40.0757 4.92188 41.1797 6.02585 41.1797 7.38281V9.84375H23.1328V7.38281ZM7.54688 79.0781C6.18991 79.0781 5.08594 77.9742 5.08594 76.6172V13.9453C5.08594 12.5884 6.18991 11.4844 7.54688 11.4844H18.2109V12.3047C18.2109 13.6638 19.3128 14.7656 20.6719 14.7656H43.6406C44.9997 14.7656 46.1016 13.6638 46.1016 12.3047V11.4844H56.7656C58.1226 11.4844 59.2266 12.5884 59.2266 13.9453V39.8406C54.9219 40.3187 50.986 42.0351 47.7834 44.625H28.875C27.5159 44.625 26.4141 45.7268 26.4141 47.0859C26.4141 48.445 27.5159 49.5469 28.875 49.5469H43.2807C41.9495 51.5319 40.9313 53.7429 40.2956 56.1094H28.875C27.5159 56.1094 26.4141 57.2112 26.4141 58.5703C26.4141 59.9294 27.5159 61.0312 28.875 61.0312H39.5558C39.5458 61.3036 39.5391 61.5768 39.5391 61.8516C39.5391 63.837 39.8032 65.7617 40.2954 67.5938H28.875C27.5159 67.5938 26.4141 68.6956 26.4141 70.0547C26.4141 71.4138 27.5159 72.5156 28.875 72.5156H42.2809C43.6762 75.0448 45.5516 77.2733 47.7835 79.0781H7.54688ZM61.6875 79.0781C52.1888 79.0781 44.4609 71.3503 44.4609 61.8516C44.4609 52.3528 52.1888 44.625 61.6875 44.625C71.1862 44.625 78.9141 52.3528 78.9141 61.8516C78.9141 71.3503 71.1862 79.0781 61.6875 79.0781Z" fill="#36B37E"/>
</svg>
