<svg width="84" height="84" viewBox="0 0 84 84" fill="none" xmlns="http://www.w3.org/2000/svg">
<path d="M76.4736 66.993C77.9974 65.1484 78.9141 62.7847 78.9141 60.2109C78.9141 54.3308 74.1302 49.5469 68.25 49.5469C62.3698 49.5469 57.5859 54.3308 57.5859 60.2109C57.5859 62.7847 58.5026 65.1484 60.0264 66.993C58.0768 67.8517 56.3898 69.1996 55.125 70.8835C53.8602 69.1996 52.1732 67.8517 50.2236 66.993C51.7474 65.1484 52.6641 62.7847 52.6641 60.2109C52.6641 54.3308 47.8802 49.5469 42 49.5469C36.1198 49.5469 31.3359 54.3308 31.3359 60.2109C31.3359 62.7847 32.2526 65.1484 33.7764 66.993C31.8268 67.8517 30.1398 69.1996 28.875 70.8835C27.6102 69.1996 25.9232 67.8517 23.9736 66.993C25.4974 65.1484 26.4141 62.7847 26.4141 60.2109C26.4141 54.3308 21.6302 49.5469 15.75 49.5469C9.86984 49.5469 5.08594 54.3308 5.08594 60.2109C5.08594 62.7847 6.00255 65.1484 7.52637 66.993C3.1961 68.9002 0.164062 73.2304 0.164062 78.2578V81.5391C0.164062 82.8982 1.26591 84 2.625 84H81.375C82.7341 84 83.8359 82.8982 83.8359 81.5391V78.2578C83.8359 73.2304 80.8039 68.9002 76.4736 66.993ZM68.25 54.4688C71.4162 54.4688 73.9922 57.0447 73.9922 60.2109C73.9922 63.3772 71.4162 65.9531 68.25 65.9531C65.0838 65.9531 62.5078 63.3772 62.5078 60.2109C62.5078 57.0447 65.0838 54.4688 68.25 54.4688ZM42 54.4688C45.1662 54.4688 47.7422 57.0447 47.7422 60.2109C47.7422 63.3772 45.1662 65.9531 42 65.9531C38.8338 65.9531 36.2578 63.3772 36.2578 60.2109C36.2578 57.0447 38.8338 54.4688 42 54.4688ZM15.75 54.4688C18.9162 54.4688 21.4922 57.0447 21.4922 60.2109C21.4922 63.3772 18.9162 65.9531 15.75 65.9531C12.5838 65.9531 10.0078 63.3772 10.0078 60.2109C10.0078 57.0447 12.5838 54.4688 15.75 54.4688ZM5.08594 78.2578C5.08594 74.1869 8.39787 70.875 12.4688 70.875H19.0312C23.1021 70.875 26.4141 74.1869 26.4141 78.2578V79.0781H5.08594V78.2578ZM31.3359 78.2578C31.3359 74.1869 34.6479 70.875 38.7188 70.875H45.2812C49.3521 70.875 52.6641 74.1869 52.6641 78.2578V79.0781H31.3359V78.2578ZM78.9141 79.0781H57.5859V78.2578C57.5859 74.1869 60.8979 70.875 64.9688 70.875H71.5312C75.6021 70.875 78.9141 74.1869 78.9141 78.2578V79.0781Z" fill="#36B37E"/>
<path d="M31.2212 21.4202L29.9688 28.7226C29.7241 30.1485 30.2993 31.5627 31.4698 32.413C32.1311 32.8935 32.905 33.1377 33.6841 33.1377C34.2838 33.1377 34.8865 32.993 35.4434 32.7003L42.0014 29.2523L48.5593 32.7003C49.8402 33.3733 51.3623 33.2635 52.5329 32.413C53.7033 31.5625 54.2785 30.1485 54.0339 28.7226L52.7815 21.4202L58.0869 16.2486C59.123 15.2388 59.4888 13.7568 59.0418 12.3808C58.5947 11.0047 57.4276 10.0208 55.9959 9.81291L48.6638 8.74748L45.385 2.10328C44.7447 0.805875 43.4481 0 42.0014 0C40.5547 0 39.2581 0.805875 38.6178 2.10328L35.3389 8.74716L28.0069 9.81258C26.5751 10.0206 25.408 11.0045 24.9609 12.3805C24.5138 13.7565 24.8797 15.2385 25.9158 16.2483L31.2212 21.4202ZM43.1466 24.2937C42.7881 24.1054 42.3947 24.011 42.0014 24.011C41.6082 24.011 41.2147 24.1052 40.8563 24.2937L35.2133 27.2605L36.2911 20.9769C36.4279 20.1785 36.1633 19.364 35.5833 18.7986L31.0181 14.3486L37.3271 13.4318C38.1287 13.3153 38.8216 12.812 39.18 12.0857L42.0014 6.36874L44.8228 12.0857C45.1813 12.812 45.8743 13.3153 46.6757 13.4318L52.9847 14.3486L48.4195 18.7986C47.8396 19.364 47.575 20.1785 47.7118 20.9769L48.7895 27.2605L43.1466 24.2937Z" fill="#36B37E"/>
<path d="M5.30285 30.5228L4.37721 35.9194C4.15162 37.2351 4.6822 38.5398 5.76222 39.3245C6.84225 40.1089 8.24711 40.2104 9.42869 39.5894L14.2749 37.0415L19.1212 39.5894C19.6352 39.8595 20.1912 39.993 20.7446 39.993C21.4633 39.993 22.1775 39.7678 22.7876 39.3245C23.8677 38.5398 24.3984 37.2351 24.1727 35.9192L23.247 30.5228L27.1676 26.7012C28.1234 25.7695 28.4611 24.402 28.0486 23.1325C27.6362 21.863 26.5594 20.9549 25.2381 20.7628L19.8199 19.9754L17.3969 15.0657C16.8061 13.8685 15.6099 13.125 14.2749 13.125C12.94 13.125 11.7438 13.8685 11.1528 15.0657L8.72979 19.9754L3.31129 20.7628C1.99026 20.9549 0.91352 21.863 0.501067 23.1325C0.088614 24.402 0.426255 25.7695 1.38208 26.7012L5.30285 30.5228ZM10.7179 24.6601C11.5195 24.5436 12.2123 24.0402 12.5708 23.3139L14.2749 19.8611L15.9791 23.3139C16.3375 24.0402 17.0305 24.5436 17.832 24.6601L21.6425 25.2138L18.8851 27.9016C18.3051 28.467 18.0405 29.2815 18.1773 30.0799L18.8282 33.8748L15.4201 32.0829C14.7033 31.7061 13.8466 31.7061 13.1298 32.0829L9.72171 33.8748L10.3725 30.0799C10.5094 29.2815 10.2447 28.467 9.66478 27.9016L6.90738 25.2138L10.7179 24.6601Z" fill="#36B37E"/>
<path d="M55.9542 23.1325C55.5417 24.402 55.8794 25.7695 56.8352 26.7012L60.7558 30.5228L59.8302 35.9194C59.6046 37.2351 60.1352 38.5398 61.2152 39.3245C62.2952 40.1089 63.7001 40.2104 64.8817 39.5894L69.7279 37.0415L74.5741 39.5894C75.0881 39.8595 75.6441 39.993 76.1975 39.993C76.9163 39.993 77.6305 39.7678 78.2406 39.3245C79.3206 38.5398 79.8514 37.2351 79.6256 35.9192L78.7 30.5228L82.6206 26.7012C83.5764 25.7695 83.9141 24.402 83.5016 23.1325C83.0891 21.863 82.0124 20.9549 80.691 20.7628L75.2729 19.9754L72.8497 15.0657C72.2592 13.8685 71.063 13.125 69.7281 13.125C68.3931 13.125 67.1969 13.8685 66.6061 15.0657L64.1831 19.9754L58.7646 20.7628C57.4434 20.9549 56.3666 21.863 55.9542 23.1325ZM66.171 24.6601C66.9726 24.5436 67.6655 24.0402 68.0239 23.3139L69.7281 19.8611L71.4322 23.3139C71.7907 24.0402 72.4837 24.5436 73.2851 24.6601L77.0956 25.2138L74.3382 27.9016C73.7583 28.467 73.4936 29.2815 73.6305 30.0799L74.2813 33.8748L70.8732 32.0829C70.1564 31.7061 69.2997 31.7061 68.5829 32.0829L65.1748 33.8748L65.8257 30.0799C65.9625 29.2815 65.6979 28.467 65.1179 27.9016L62.3605 25.2138L66.171 24.6601Z" fill="#36B37E"/>
</svg>
