<svg width="60" height="60" viewBox="0 0 60 60" fill="none" xmlns="http://www.w3.org/2000/svg">
<path d="M20 17.5C16.6848 17.5 13.5054 18.817 11.1612 21.1612C8.81696 23.5054 7.5 26.6848 7.5 30C7.5 33.3152 8.81696 36.4946 11.1612 38.8388C13.5054 41.183 16.6848 42.5 20 42.5H40C43.3152 42.5 46.4946 41.183 48.8388 38.8388C51.183 36.4946 52.5 33.3152 52.5 30C52.5 26.6848 51.183 23.5054 48.8388 21.1612C46.4946 18.817 43.3152 17.5 40 17.5H20ZM20 12.5H40C44.6413 12.5 49.0925 14.3437 52.3744 17.6256C55.6563 20.9075 57.5 25.3587 57.5 30C57.5 34.6413 55.6563 39.0925 52.3744 42.3744C49.0925 45.6563 44.6413 47.5 40 47.5H20C15.3587 47.5 10.9075 45.6563 7.62563 42.3744C4.34374 39.0925 2.5 34.6413 2.5 30C2.5 25.3587 4.34374 20.9075 7.62563 17.6256C10.9075 14.3437 15.3587 12.5 20 12.5V12.5ZM20 37.5C18.0109 37.5 16.1032 36.7098 14.6967 35.3033C13.2902 33.8968 12.5 31.9891 12.5 30C12.5 28.0109 13.2902 26.1032 14.6967 24.6967C16.1032 23.2902 18.0109 22.5 20 22.5C21.9891 22.5 23.8968 23.2902 25.3033 24.6967C26.7098 26.1032 27.5 28.0109 27.5 30C27.5 31.9891 26.7098 33.8968 25.3033 35.3033C23.8968 36.7098 21.9891 37.5 20 37.5Z" fill="black"/>
</svg>
