<svg width="852" height="687" viewBox="0 0 852 687" fill="none" xmlns="http://www.w3.org/2000/svg">
<g clip-path="url(#clip0_215_851)">
<path d="M18.846 108.665C17.5865 108.665 16.3087 108.665 15.0456 108.621L15.0969 106.427C17.5133 106.482 19.9701 106.486 22.3682 106.427L22.4195 108.621C21.2369 108.651 20.036 108.665 18.846 108.665ZM29.7823 108.3L29.6322 106.106C32.045 105.941 34.4798 105.714 36.8706 105.44L37.1269 107.634C34.6995 107.897 32.2281 108.124 29.7823 108.292V108.3ZM7.68271 108.3C5.25161 108.131 2.78389 107.908 0.341797 107.63L0.587104 105.436C2.9999 105.707 5.43467 105.93 7.83283 106.095L7.68271 108.3ZM255.718 106.837C253.476 106.838 251.237 106.694 249.014 106.405L249.303 104.211C251.672 104.516 254.059 104.65 256.446 104.614L256.476 106.808L255.718 106.837ZM44.4276 106.617L44.0614 104.453C45.3209 104.244 46.5951 104.018 47.8509 103.78C48.9749 103.564 50.1026 103.334 51.201 103.1L51.6623 105.243C50.5456 105.484 49.4033 105.714 48.261 105.934C47.0198 106.149 45.7054 106.38 44.4276 106.592V106.617ZM263.89 106.252L263.575 104.083C265.934 103.737 268.267 103.229 270.557 102.562L271.172 104.665C268.784 105.352 266.351 105.87 263.89 106.215V106.252ZM241.71 104.833C239.321 104.124 236.989 103.239 234.731 102.185L235.661 100.196C237.818 101.206 240.048 102.052 242.332 102.727L241.71 104.833ZM58.8385 103.487L58.2636 101.37C60.6105 100.737 62.9464 100.039 65.2201 99.2929L65.9084 101.374C63.5982 102.134 61.222 102.844 58.8385 103.487ZM278.151 102.05L277.254 100.046C279.439 99.0639 281.566 97.9578 283.624 96.7332L284.745 98.6201C282.618 99.8883 280.42 101.034 278.162 102.05H278.151ZM72.8356 98.8651L72.0265 96.8246C74.2599 95.9397 76.5006 94.978 78.6827 93.9614L79.6054 95.9507C77.4086 96.9855 75.1093 97.9655 72.8356 98.8651ZM228.207 98.6164C226.211 97.3512 224.231 95.9507 222.151 94.3307L223.495 92.5827C225.516 94.1588 227.442 95.5082 229.375 96.7442L228.207 98.6164ZM290.958 94.594L289.687 92.8058C291.452 91.5552 293.349 90.1327 295.501 88.4543L296.856 90.1802C294.681 91.8624 292.752 93.3068 290.958 94.594ZM86.1957 92.6486L85.1559 90.7178C87.2355 89.5988 89.3518 88.3884 91.4497 87.1122L92.592 88.9881C90.4721 90.2826 88.3193 91.515 86.1957 92.6486ZM216.476 89.5732C214.865 88.1398 213.148 86.549 211.076 84.5744L212.591 82.9874C214.645 84.9474 216.344 86.5161 217.937 87.935L216.476 89.5732ZM302.579 85.58L301.195 83.8759L302.143 83.108C303.685 81.8574 305.277 80.5483 306.903 79.2757L308.272 80.9907C306.665 82.2743 305.072 83.5505 303.534 84.8121L302.579 85.58ZM98.8053 85.0205L97.5824 83.1921C99.4643 81.9269 101.419 80.5666 103.554 79.0307L104.839 80.8116C102.672 82.3694 100.709 83.7443 98.8053 85.0205ZM205.811 79.4915C204.236 77.9739 202.373 76.2004 200.513 74.4743L202.003 72.8617C203.881 74.595 205.752 76.3869 207.334 77.9117L205.811 79.4915ZM314.02 76.5185L312.699 74.7669C314.778 73.1982 316.726 71.7903 318.67 70.4592L319.915 72.2657C318.004 73.5821 316.074 74.9717 314.02 76.5185ZM110.752 76.4783L109.438 74.7157L110.997 73.5565C112.462 72.4595 113.89 71.399 115.318 70.3532L116.621 72.1194C115.197 73.1652 113.765 74.233 112.312 75.3154L110.752 76.4783ZM195.057 69.6767C193.069 68.0238 191.195 66.583 189.327 65.2885L190.59 63.493C192.505 64.8387 194.428 66.3161 196.449 68.0055L195.057 69.6767ZM326.011 68.32L324.858 66.4367C326.978 65.1459 329.134 63.9172 331.272 62.78L332.298 64.7181C330.2 65.848 328.083 67.0511 326.011 68.32ZM122.545 67.8995L121.304 66.0711C123.526 64.5498 125.558 63.2444 127.528 62.0779L128.652 63.9648C126.723 65.113 124.727 66.3965 122.545 67.8995ZM338.826 61.5622L337.925 59.562C340.151 58.56 342.45 57.6166 344.753 56.7572L345.522 58.8124C343.245 59.6571 340.993 60.5859 338.826 61.5622ZM183.22 61.4635C181.128 60.3137 178.96 59.3058 176.732 58.4467L177.52 56.3989C179.839 57.2935 182.096 58.3429 184.275 59.5401L183.22 61.4635ZM134.99 60.5859L134.053 58.6003C136.295 57.5369 138.601 56.6124 140.958 55.8321L141.643 57.9164C139.372 58.6677 137.15 59.5592 134.99 60.5859ZM352.373 56.4903L351.732 54.3913C354.046 53.6892 356.44 53.0346 358.849 52.4532L359.366 54.5851C356.989 55.1592 354.639 55.7992 352.373 56.4903ZM169.922 56.3843C167.596 55.8683 165.236 55.5212 162.86 55.3457L163.025 53.1516C165.506 53.3391 167.97 53.7058 170.398 54.2487L169.922 56.3843ZM148.581 56.1319L148.178 53.9744C150.619 53.5229 153.087 53.2285 155.566 53.0931L155.691 55.2872C153.303 55.4173 150.925 55.6994 148.573 56.1319H148.581ZM366.461 53.0749L366.062 50.9174C368.468 50.4749 370.921 50.0873 373.355 49.7728L373.637 51.9669C371.236 52.2594 368.823 52.6397 366.454 53.0749H366.461ZM417.072 52.9834C414.67 52.5739 412.25 52.2155 409.877 51.923L410.148 49.7472C412.55 50.0434 415.006 50.4054 417.441 50.8186L417.072 52.9834ZM402.642 51.2062C400.226 51.0234 397.784 50.8991 395.386 50.8406L395.44 48.6465C397.879 48.7086 400.358 48.833 402.807 49.0122L402.642 51.2062ZM380.865 51.2062L380.696 49.0122C383.128 48.8257 385.61 48.6977 388.063 48.6465L388.118 50.8406C385.69 50.8954 383.252 51.0198 380.858 51.2026L380.865 51.2062Z" fill="#36B37E"/>
<path d="M18.5054 658.657C17.2496 658.657 15.9718 658.657 14.705 658.613L14.7563 656.419C17.1947 656.478 19.6514 656.478 22.0276 656.419L22.0789 658.613C20.9036 658.642 19.7027 658.657 18.5054 658.657ZM29.4418 658.291L29.2916 656.097C31.7008 655.933 34.1392 655.706 36.5337 655.432L36.7863 657.626C34.3589 657.886 31.8875 658.105 29.4454 658.284L29.4418 658.291ZM7.34214 658.291C4.91835 658.123 2.44698 657.9 0.0195312 657.622L0.264838 655.428C2.6813 655.702 5.11972 655.922 7.51055 656.086L7.34214 658.291ZM255.377 656.829C253.135 656.83 250.896 656.686 248.673 656.397L248.963 654.203C251.325 654.511 253.706 654.648 256.087 654.613L256.117 656.807L255.377 656.829ZM44.087 656.609L43.7208 654.445C44.9767 654.236 46.2508 654.009 47.5103 653.772C48.6343 653.556 49.762 653.326 50.8604 653.092L51.3217 655.234C50.205 655.476 49.0627 655.706 47.9204 655.926C46.6535 656.145 45.3611 656.372 44.0906 656.584L44.087 656.609ZM263.549 656.244L263.234 654.072C265.594 653.725 267.927 653.217 270.216 652.55L270.831 654.657C268.443 655.342 266.01 655.862 263.549 656.211V656.244ZM241.369 654.814C238.98 654.105 236.648 653.22 234.391 652.166L235.32 650.177C237.478 651.186 239.708 652.033 241.991 652.711L241.369 654.814ZM58.4979 653.468L57.923 651.351C60.2663 650.718 62.6058 650.02 64.8795 649.274L65.5678 651.355C63.2539 652.126 60.8777 652.839 58.4979 653.479V653.468ZM277.81 652.031L276.913 650.027C279.099 649.046 281.226 647.94 283.284 646.714L284.404 648.601C282.277 649.873 280.079 651.022 277.821 652.042L277.81 652.031ZM72.484 648.846L71.6749 646.806C73.9119 645.921 76.1527 644.959 78.3311 643.942L79.2611 645.932C77.0424 646.977 74.7724 647.957 72.495 648.857L72.484 648.846ZM227.855 648.579C225.86 647.314 223.879 645.913 221.799 644.297L223.15 642.567C225.171 644.14 227.094 645.493 229.03 646.725L227.855 648.579ZM290.606 644.557L289.336 642.768C291.104 641.514 292.997 640.092 295.15 638.417L296.505 640.143C294.344 641.851 292.415 643.295 290.617 644.575L290.606 644.557ZM85.8661 642.64L84.8263 640.71C86.9096 639.591 89.0258 638.38 91.1237 637.104L92.2624 638.98C90.1352 640.274 87.9823 641.507 85.8661 642.64ZM216.146 639.565C214.539 638.135 212.825 636.548 210.746 634.57L212.262 632.979C214.323 634.943 216.022 636.515 217.607 637.927L216.146 639.565ZM302.242 635.572L300.858 633.868L301.788 633.114C303.337 631.86 304.937 630.555 306.548 629.268L307.921 630.983C306.302 632.27 304.706 633.564 303.161 634.819L302.242 635.572ZM98.4647 635.012L97.2418 633.184C99.131 631.915 101.082 630.555 103.213 629.023L104.498 630.803C102.349 632.358 100.376 633.733 98.4647 635.012ZM205.47 629.483C203.896 627.969 202.036 626.192 200.172 624.466L201.662 622.854C203.54 624.587 205.411 626.382 206.993 627.907L205.47 629.483ZM313.68 626.51L312.358 624.759C314.434 623.194 316.385 621.786 318.33 620.451L319.574 622.258C317.656 623.578 315.73 624.967 313.68 626.51ZM110.411 626.47L109.097 624.711L110.642 623.559C112.107 622.462 113.546 621.395 114.977 620.345L116.281 622.111C114.853 623.16 113.411 624.229 111.957 625.318L110.411 626.47ZM194.717 619.668C192.729 618.019 190.854 616.579 188.987 615.28L190.25 613.485C192.165 614.827 194.087 616.304 196.108 617.994L194.717 619.668ZM325.645 618.312L324.503 616.44C326.619 615.149 328.775 613.92 330.917 612.783L331.942 614.721C329.859 615.84 327.739 617.047 325.645 618.312ZM122.205 617.88L120.963 616.052C123.182 614.531 125.214 613.225 127.188 612.059L128.312 613.946C126.378 615.109 124.387 616.388 122.205 617.88ZM338.459 611.554L337.559 609.554C339.788 608.552 342.084 607.608 344.387 606.749L345.156 608.804C342.908 609.649 340.656 610.567 338.459 611.554ZM182.887 611.455C180.795 610.306 178.627 609.298 176.399 608.439L177.186 606.391C179.506 607.285 181.763 608.335 183.941 609.532L182.887 611.455ZM134.649 610.567L133.712 608.581C135.955 607.519 138.261 606.596 140.617 605.817L141.306 607.901C139.034 608.651 136.811 609.541 134.649 610.567ZM352.025 606.479L351.384 604.38C353.698 603.677 356.092 603.023 358.501 602.441L359.018 604.573C356.652 605.151 354.298 605.791 352.025 606.482V606.479ZM169.574 606.372C167.248 605.856 164.888 605.509 162.512 605.334L162.677 603.14C165.157 603.331 167.622 603.697 170.05 604.237L169.574 606.372ZM148.233 606.12L147.83 603.963C150.271 603.511 152.739 603.217 155.219 603.081L155.343 605.275C152.957 605.407 150.582 605.69 148.233 606.124V606.12ZM366.113 603.063L365.714 600.906C368.12 600.463 370.573 600.075 373.007 599.761L373.289 601.937C370.895 602.251 368.482 602.632 366.113 603.067V603.063ZM416.723 602.972C414.322 602.562 411.901 602.207 409.529 601.915L409.8 599.721C412.205 600.017 414.658 600.379 417.093 600.796L416.723 602.972ZM402.294 601.195C399.881 601.012 397.439 600.887 395.038 600.829L395.092 598.635C397.531 598.697 400.01 598.821 402.459 599L402.294 601.195ZM380.517 601.195L380.348 599C382.78 598.814 385.258 598.686 387.715 598.635L387.77 600.829C385.353 600.887 382.911 601.012 380.517 601.195Z" fill="#36B37E"/>
<path d="M374.139 265.282C371.641 265.099 369.168 264.663 366.758 263.981L367.359 261.871C369.631 262.51 371.961 262.92 374.315 263.096L374.139 265.282ZM381.652 265.121L381.403 262.927C383.76 262.66 386.089 262.181 388.36 261.498L388.997 263.597C386.603 264.322 384.148 264.833 381.663 265.121H381.652ZM165.181 263.257H164.596L164.628 261.062C166.988 261.102 169.346 260.912 171.669 260.496L172.061 262.657C169.79 263.06 167.488 263.26 165.181 263.257ZM157.126 262.489C154.672 262.017 152.264 261.333 149.928 260.444L150.712 258.393C152.927 259.237 155.212 259.886 157.54 260.331L157.126 262.489ZM359.776 261.253C357.552 260.127 355.418 258.831 353.394 257.376L354.672 255.592C356.603 256.98 358.639 258.218 360.761 259.293L359.776 261.253ZM395.92 260.825L394.932 258.865C397.057 257.794 399.103 256.572 401.054 255.208L402.313 257.007C400.283 258.429 398.154 259.705 395.942 260.825H395.92ZM179.27 260.613L178.461 258.565C180.669 257.697 182.799 256.642 184.828 255.413L185.963 257.292C183.83 258.586 181.591 259.697 179.27 260.613ZM143.192 257.241C141.04 256.001 138.969 254.627 136.989 253.127L138.311 251.376C140.219 252.819 142.214 254.143 144.286 255.34L143.192 257.241ZM192.07 253.01L190.693 251.303C192.451 249.891 194.263 248.278 196.072 246.505L197.61 248.074C195.75 249.891 193.882 251.551 192.07 253.007V253.01ZM347.628 252.692C345.892 251.12 344.172 249.401 342.366 247.477L343.97 245.982C345.735 247.872 347.415 249.536 349.096 251.068L347.628 252.692ZM408.164 252.407L406.721 250.75C408.424 249.288 410.148 247.653 411.997 245.799L413.553 247.35C411.686 249.233 409.907 250.889 408.164 252.403V252.407ZM131.285 248.384C129.59 246.852 127.851 245.181 125.969 243.265L127.536 241.725C129.388 243.605 131.098 245.251 132.761 246.753L131.285 248.384ZM202.706 242.709L201.069 241.246C202.563 239.572 204.105 237.761 205.785 235.706L207.484 237.096C205.785 239.18 204.222 241.016 202.706 242.716V242.709ZM418.642 242.007L417.02 240.544C418.437 238.997 419.949 237.319 421.883 235.103L423.534 236.566C421.571 238.76 420.056 240.449 418.642 242.007ZM337.504 241.934C336.065 240.211 334.557 238.336 332.887 236.196L334.623 234.851C336.274 236.968 337.768 238.826 339.188 240.53L337.504 241.934ZM120.905 237.941C119.225 236.112 117.548 234.258 115.973 232.514L117.606 231.051C119.177 232.796 120.847 234.646 122.52 236.46L120.905 237.941ZM212.072 231.358L210.34 230.009C211.713 228.246 213.079 226.462 214.452 224.677L214.818 224.22L216.56 225.555L216.194 226.012C214.815 227.799 213.437 229.581 212.061 231.358H212.072ZM428.349 231.026L426.697 229.563C428.015 228.056 429.758 226.071 431.559 224.078L433.192 225.54C431.391 227.541 429.652 229.53 428.338 231.018L428.349 231.026ZM328.424 230.371C327.707 229.42 326.99 228.467 326.275 227.511L324.016 224.513L325.773 223.193L328.029 226.195C328.746 227.151 329.464 228.103 330.182 229.051L328.424 230.371ZM111.082 227.08C109.215 225.029 107.637 223.328 106.121 221.734L107.714 220.224C109.24 221.832 110.829 223.54 112.708 225.606L111.082 227.08ZM438.139 220.194L436.546 218.68C438.337 216.801 440.028 215.089 441.723 213.447L443.254 215.02C441.569 216.647 439.896 218.337 438.128 220.198L438.139 220.194ZM221.024 219.755L219.295 218.406C220.987 216.241 222.492 214.384 223.894 212.669L225.589 214.065C224.183 215.751 222.693 217.613 221.009 219.759L221.024 219.755ZM319.582 218.699C317.942 216.589 316.448 214.731 315.02 213.012L316.712 211.612C318.154 213.345 319.659 215.225 321.318 217.349L319.582 218.699ZM101.024 216.534C99.1937 214.749 97.4802 213.122 95.7337 211.557L97.1983 209.922C98.9703 211.509 100.728 213.162 102.566 214.972L101.024 216.534ZM448.588 210.098L447.124 208.445C449.009 206.796 450.924 205.212 452.813 203.75L454.161 205.483C452.326 206.924 450.43 208.478 448.574 210.102L448.588 210.098ZM230.334 208.551L228.701 207.088C230.466 205.136 232.139 203.391 233.827 201.757L235.358 203.325C233.692 204.927 232.051 206.635 230.32 208.555L230.334 208.551ZM310.246 207.531C308.532 205.666 306.823 203.929 305.171 202.367L306.68 200.773C308.371 202.371 310.114 204.145 311.864 206.05L310.246 207.531ZM90.2015 206.869C88.2867 205.337 86.3352 203.881 84.402 202.536L85.6578 200.736C87.6276 202.108 89.6194 203.592 91.5745 205.154L90.2015 206.869ZM460.015 201.248L458.789 199.42C460.846 198.038 462.959 196.729 465.071 195.522L466.17 197.427C464.108 198.612 462.043 199.91 460.015 201.248ZM78.2876 198.623C76.2117 197.394 74.0735 196.235 71.9353 195.178L72.9092 193.211C75.106 194.308 77.3027 195.478 79.408 196.74L78.2876 198.623ZM240.703 198.513L239.315 196.813C241.237 195.244 243.248 193.788 245.338 192.45L246.517 194.304C244.499 195.594 242.558 196.999 240.703 198.513ZM299.683 197.665C297.804 196.191 295.836 194.833 293.792 193.598L294.923 191.715C297.05 192.997 299.096 194.406 301.052 195.935L299.683 197.665ZM472.566 194.096L471.625 192.11C473.822 191.064 476.125 190.084 478.421 189.203L479.208 191.254C476.978 192.114 474.745 193.068 472.581 194.096H472.566ZM65.3559 192.231C63.1372 191.342 60.8452 190.53 58.5459 189.814L59.2013 187.718C61.5555 188.45 63.8987 189.287 66.1577 190.19L65.3559 192.231ZM252.815 190.892L251.914 188.888C254.186 187.865 256.537 187.026 258.944 186.38L259.508 188.501C257.214 189.119 254.974 189.922 252.811 190.903L252.815 190.892ZM287.421 190.402C285.23 189.488 282.967 188.754 280.655 188.208L281.153 186.073C283.581 186.638 285.957 187.401 288.26 188.355L287.421 190.402ZM1.38562 189.203L0.814453 187.082C3.21261 186.438 5.63273 185.868 8.00525 185.385L8.44461 187.535C6.11602 187.989 3.73983 188.552 1.38562 189.185V189.203ZM486.062 188.94L485.432 186.841C486.391 186.552 487.369 186.274 488.361 186.014C489.763 185.649 491.191 185.283 492.608 184.972L493.084 187.115C491.7 187.422 490.301 187.766 488.928 188.132C487.962 188.369 487.003 188.64 486.062 188.94ZM51.5711 187.952C49.2169 187.389 46.837 186.928 44.4572 186.559L44.794 184.391C47.2215 184.756 49.6636 185.243 52.0617 185.799L51.5711 187.952ZM266.49 187.29L266.285 185.096C267.72 184.961 269.192 184.895 270.678 184.895H271.044C271.963 184.895 272.875 184.936 273.794 184.994L273.651 187.188C272.791 187.13 271.905 187.1 271.026 187.093H270.693C269.261 187.082 267.863 187.144 266.497 187.272L266.49 187.29ZM536.211 186.947C533.831 186.46 531.425 186.051 529.064 185.725L529.364 183.553C531.773 183.882 534.226 184.285 536.65 184.8L536.211 186.947ZM15.5732 186.329L15.2803 184.157C17.7297 183.827 20.2047 183.582 22.6431 183.425L22.7823 185.619C20.4171 185.747 17.9896 185.989 15.5915 186.31L15.5732 186.329ZM500.172 185.799L499.85 183.63C502.278 183.264 504.753 182.997 507.206 182.818L507.37 185.012C504.987 185.166 502.563 185.433 500.191 185.78L500.172 185.799ZM37.2554 185.729C34.8646 185.535 32.4335 185.429 30.0207 185.411V183.217C32.4847 183.235 34.9708 183.345 37.4128 183.542L37.2554 185.729ZM521.847 184.998C519.489 184.837 517.088 184.753 514.763 184.753H514.605V182.559H514.759C517.153 182.559 519.588 182.643 521.997 182.811L521.847 184.998Z" fill="#36B37E"/>
<path d="M377.325 502.772V500.578C378.496 500.578 379.697 500.516 380.898 500.417C382.099 500.318 383.282 500.176 384.442 499.993L384.787 502.158C383.571 502.352 382.323 502.501 381.078 502.604C379.833 502.706 378.551 502.765 377.325 502.772ZM369.87 502.216C367.406 501.823 364.979 501.221 362.617 500.417L363.324 498.34C365.57 499.104 367.876 499.677 370.218 500.051L369.87 502.216ZM165.079 501.017C163.728 501.017 162.34 500.955 160.956 500.838C159.858 500.746 158.723 500.618 157.628 500.472L157.958 498.303C159.005 498.457 160.078 498.581 161.147 498.669C162.472 498.779 163.801 498.834 165.09 498.837L165.079 501.017ZM172.523 500.443L172.175 498.278C174.518 497.902 176.827 497.333 179.076 496.577L179.776 498.658C177.412 499.453 174.986 500.049 172.523 500.443ZM392.032 500.443L391.359 498.355C393.626 497.621 395.838 496.722 397.975 495.667L398.945 497.638C396.711 498.735 394.401 499.668 392.032 500.432V500.443ZM150.35 498.826C147.97 498.098 145.645 497.201 143.393 496.142L144.327 494.153C146.484 495.164 148.711 496.019 150.99 496.713L150.35 498.826ZM355.749 497.47C353.557 496.297 351.442 494.988 349.415 493.55L350.678 491.754C352.632 493.131 354.672 494.383 356.785 495.502L355.749 497.47ZM186.644 495.744L185.637 493.795C187.757 492.689 189.807 491.453 191.774 490.094L193.018 491.9C190.976 493.314 188.847 494.597 186.644 495.744ZM405.396 493.915L404.195 492.087C406.099 490.844 408.01 489.465 410.053 487.863L411.412 489.586C409.317 491.231 407.355 492.65 405.396 493.915ZM136.869 492.548C134.877 491.304 132.885 489.922 130.776 488.331L132.102 486.58C134.159 488.134 136.1 489.48 138.037 490.686L136.869 492.548ZM343.586 489.001C341.825 487.498 340.045 485.863 338.142 484.005L339.676 482.437C341.547 484.265 343.289 485.863 345.014 487.337L343.586 489.001ZM198.928 487.384L197.515 485.706C199.25 484.243 201.011 482.663 202.9 480.853L204.42 482.437C202.479 484.28 200.682 485.896 198.91 487.384H198.928ZM417.076 484.854L415.611 483.208C417.189 481.815 418.906 480.257 420.997 478.301L422.494 479.903C420.378 481.874 418.643 483.446 417.057 484.854H417.076ZM125.05 483.709C123.417 482.32 121.663 480.784 119.536 478.853L121.001 477.226C123.113 479.135 124.852 480.663 126.471 482.038L125.05 483.709ZM332.968 478.747C331.192 476.871 329.45 474.973 327.978 473.361L329.6 471.898C331.064 473.5 332.803 475.39 334.564 477.255L332.968 478.747ZM209.612 477.229L208.03 475.708C209.776 473.88 211.475 472.088 213.049 470.399L214.657 471.894C213.071 473.591 211.365 475.412 209.608 477.229H209.612ZM427.825 474.882L426.317 473.287C427.898 471.795 429.777 470.033 431.684 468.289L433.149 469.905C431.267 471.642 429.4 473.393 427.822 474.9L427.825 474.882ZM114.11 473.916C112.408 472.359 110.57 470.687 108.695 469.016L110.16 467.378C112.045 469.057 113.887 470.735 115.597 472.296L114.11 473.916ZM323.035 467.952C321.105 465.857 319.52 464.164 318.041 462.632L319.626 461.11C321.113 462.657 322.713 464.358 324.653 466.468L323.035 467.952ZM219.647 466.548L218.047 465.041C220.006 462.964 221.624 461.282 223.144 459.746L224.707 461.29C223.199 462.833 221.591 464.486 219.647 466.552V466.548ZM438.593 465.063L437.162 463.4C439.124 461.714 440.984 460.185 442.848 458.722L444.206 460.448C442.383 461.893 440.545 463.403 438.608 465.067L438.593 465.063ZM103.166 464.252C101.2 462.61 99.344 461.125 97.4914 459.71L98.8241 457.965C100.706 459.403 102.584 460.891 104.576 462.569L103.166 464.252ZM312.879 457.501C311.008 455.72 309.243 454.144 307.478 452.674L308.884 450.988C310.685 452.491 312.487 454.1 314.376 455.91L312.879 457.501ZM229.932 456.25L228.445 454.634C230.382 452.857 232.213 451.277 234.051 449.811L235.424 451.526C233.626 452.959 231.828 454.495 229.932 456.25ZM450.046 456.141L448.786 454.345C450.825 452.919 452.905 451.559 454.966 450.323L456.109 452.199C454.088 453.398 452.048 454.733 450.046 456.13V456.141ZM91.604 455.486C89.5793 454.115 87.5217 452.809 85.486 451.614L86.5844 449.723C88.6604 450.944 90.7583 452.283 92.8086 453.672L91.604 455.486ZM462.399 448.626L461.385 446.681C463.581 445.547 465.808 444.487 468.056 443.507L468.931 445.518C466.745 446.461 464.548 447.507 462.414 448.615L462.399 448.626ZM301.741 448.315C299.774 446.946 297.732 445.688 295.623 444.549L296.666 442.618C298.847 443.795 300.961 445.093 302.997 446.505L301.741 448.315ZM79.1336 448.162C76.9845 447.087 74.7694 446.081 72.5433 445.163L73.3817 443.137C75.6444 444.073 77.9071 445.101 80.1039 446.198L79.1336 448.162ZM241.249 447.288L240.044 445.459C242.117 444.098 244.268 442.859 246.484 441.748L247.466 443.711C245.328 444.778 243.255 445.969 241.256 447.277L241.249 447.288ZM475.667 442.87L474.935 440.804C477.223 439.992 479.592 439.243 481.972 438.577L482.569 440.687C480.24 441.331 477.919 442.066 475.675 442.859L475.667 442.87ZM65.7735 442.64C63.5182 441.887 61.1823 441.199 58.8171 440.589L59.3699 438.464C61.7644 439.086 64.1479 439.791 66.4509 440.559L65.7735 442.64ZM289.113 441.579C286.884 440.735 284.599 440.048 282.274 439.524L282.757 437.381C285.182 437.93 287.565 438.647 289.889 439.528L289.113 441.579ZM254.056 440.947L253.349 438.87C255.703 438.071 258.111 437.44 260.555 436.983L260.961 439.14C258.625 439.575 256.322 440.175 254.071 440.936L254.056 440.947ZM1.32363 439.996L0.847656 437.853C3.26778 437.319 5.7062 436.844 8.09337 436.445L8.4595 438.61C6.11993 438.99 3.72178 439.459 1.33827 439.985L1.32363 439.996ZM51.78 438.987C49.4185 438.533 47.0204 438.146 44.6185 437.835L44.9005 435.641C47.3389 435.955 49.792 436.35 52.1974 436.815L51.78 438.987ZM489.613 438.943L489.152 436.796C491.55 436.284 493.996 435.838 496.42 435.473L496.749 437.641C494.369 437.999 491.968 438.438 489.613 438.943ZM540.073 438.826C537.686 438.354 535.277 437.945 532.912 437.605L533.223 435.432C535.625 435.776 538.074 436.193 540.498 436.672L540.073 438.826ZM275.229 438.435C273.845 438.318 272.425 438.255 271.004 438.248H270.667C269.796 438.248 268.921 438.248 268.068 438.307L267.965 436.113C268.851 436.072 269.763 436.05 270.667 436.05H271.015C272.48 436.05 273.97 436.124 275.409 436.244L275.229 438.435ZM15.6613 437.601L15.4196 435.407C17.8691 435.136 20.3478 434.935 22.7825 434.811L22.896 437.005C20.5015 437.144 18.0668 437.341 15.6613 437.601ZM37.4021 437.122C35.004 436.961 32.5619 436.87 30.1491 436.851V434.657C32.6058 434.657 35.0882 434.767 37.5303 434.931L37.4021 437.122ZM503.951 436.756L503.757 434.562C506.188 434.343 508.67 434.196 511.131 434.127L511.197 436.321C508.78 436.423 506.342 436.566 503.951 436.778V436.756ZM525.699 436.756C523.29 436.548 520.852 436.391 518.453 436.336L518.516 434.142C520.958 434.215 523.436 434.357 525.89 434.573L525.699 436.756Z" fill="#36B37E"/>
<path d="M852.001 328.317L848.746 321.793L767.202 282.578L728.029 289.047L734.517 321.651L852.001 328.317Z" fill="url(#paint0_linear_215_851)"/>
<path d="M852 328.316L848.727 334.829L767.088 373.843L727.934 367.276L734.502 334.69L852 328.316Z" fill="url(#paint1_linear_215_851)"/>
<path d="M738.589 328.174L734.518 321.65L852.001 328.317L738.589 328.174Z" fill="url(#paint2_linear_215_851)"/>
<path d="M738.59 328.174L734.504 334.69L852.002 328.316L738.59 328.174Z" fill="url(#paint3_linear_215_851)"/>
<path style="mix-blend-mode:multiply" opacity="0.3" d="M564.033 268.028C616.115 268.028 658.337 238.342 658.337 201.723C658.337 165.104 616.115 135.418 564.033 135.418C511.95 135.418 469.729 165.104 469.729 201.723C469.729 238.342 511.95 268.028 564.033 268.028Z" fill="url(#paint4_radial_215_851)"/>
<path d="M654.695 187.549L651.587 193.758L573.875 231.013L536.57 224.804L542.787 193.758L654.695 187.549Z" fill="url(#paint5_linear_215_851)"/>
<path d="M654.695 187.55L651.587 181.341L573.875 144.082L536.57 150.291L542.787 181.341L654.695 187.55Z" fill="url(#paint6_linear_215_851)"/>
<path d="M546.673 187.549L542.785 193.758L654.693 187.549H546.673Z" fill="url(#paint7_linear_215_851)"/>
<path d="M546.673 187.549L542.785 181.34L654.693 187.549H546.673Z" fill="url(#paint8_linear_215_851)"/>
<path style="mix-blend-mode:multiply" opacity="0.3" d="M564.033 518.045C616.115 518.045 658.337 488.359 658.337 451.74C658.337 415.121 616.115 385.436 564.033 385.436C511.95 385.436 469.729 415.121 469.729 451.74C469.729 488.359 511.95 518.045 564.033 518.045Z" fill="url(#paint9_radial_215_851)"/>
<path d="M654.695 437.562L651.587 443.772L573.875 481.027L536.57 474.818L542.787 443.772L654.695 437.562Z" fill="url(#paint10_linear_215_851)"/>
<path d="M654.695 437.564L651.587 431.355L573.875 394.1L536.57 400.309L542.787 431.355L654.695 437.564Z" fill="url(#paint11_linear_215_851)"/>
<path d="M546.673 437.562L542.785 443.772L654.693 437.562H546.673Z" fill="url(#paint12_linear_215_851)"/>
<path d="M546.673 437.563L542.785 431.354L654.693 437.563H546.673Z" fill="url(#paint13_linear_215_851)"/>
<path style="mix-blend-mode:multiply" opacity="0.3" d="M444.57 132.61C496.653 132.61 538.874 102.924 538.874 66.3048C538.874 29.6857 496.653 0 444.57 0C392.487 0 350.266 29.6857 350.266 66.3048C350.266 102.924 392.487 132.61 444.57 132.61Z" fill="url(#paint14_radial_215_851)"/>
<path d="M535.232 52.127L532.124 58.3362L454.412 95.5952L417.107 89.3823L423.324 58.3362L535.232 52.127Z" fill="url(#paint15_linear_215_851)"/>
<path d="M535.232 52.1266L532.124 45.9174L454.412 8.66211L417.107 14.8713L423.324 45.9174L535.232 52.1266Z" fill="url(#paint16_linear_215_851)"/>
<path d="M427.213 52.127L423.324 58.3362L535.232 52.127H427.213Z" fill="url(#paint17_linear_215_851)"/>
<path d="M427.213 52.1272L423.324 45.918L535.232 52.1272H427.213Z" fill="url(#paint18_linear_215_851)"/>
<path style="mix-blend-mode:multiply" opacity="0.3" d="M451.82 687C503.903 687 546.124 657.315 546.124 620.695C546.124 584.076 503.903 554.391 451.82 554.391C399.737 554.391 357.516 584.076 357.516 620.695C357.516 657.315 399.737 687 451.82 687Z" fill="url(#paint19_radial_215_851)"/>
<path d="M542.482 606.518L539.374 612.727L461.662 649.986L424.357 643.777L430.574 612.727L542.482 606.518Z" fill="url(#paint20_linear_215_851)"/>
<path d="M542.482 606.517L539.374 600.308L461.662 563.053L424.357 569.262L430.574 600.308L542.482 606.517Z" fill="url(#paint21_linear_215_851)"/>
<path d="M434.463 606.518L430.574 612.727L542.482 606.518H434.463Z" fill="url(#paint22_linear_215_851)"/>
<path d="M434.463 606.518L430.574 600.309L542.482 606.518H434.463Z" fill="url(#paint23_linear_215_851)"/>
<path d="M714.252 331.51H706.929V329.316H714.252V331.51ZM699.607 331.51H692.284V329.316H699.607V331.51ZM684.962 331.51H677.639V329.316H684.962V331.51ZM670.316 331.51H662.994V329.316H670.316V331.51ZM655.671 331.51H648.349V329.316H655.671V331.51ZM641.026 331.51H633.703V329.316H641.026V331.51ZM626.381 331.51H619.058V329.316H626.381V331.51ZM611.736 331.51H604.413V329.316H611.736V331.51ZM597.09 331.51H589.768V329.316H597.09V331.51ZM582.445 331.51H575.122V329.316H582.445V331.51ZM567.8 331.51H560.477V329.316H567.8V331.51ZM553.155 331.51H545.832V329.316H553.155V331.51ZM538.509 331.51H531.187V329.316H538.509V331.51ZM523.864 331.51H516.542V329.316H523.864V331.51ZM509.219 331.51H501.896V329.316H509.219V331.51ZM494.574 331.51H487.251V329.316H494.574V331.51ZM479.929 331.51H472.606V329.316H479.929V331.51ZM465.283 331.51H457.961V329.316H465.283V331.51ZM450.638 331.51H443.316V329.316H450.638V331.51ZM435.993 331.51H428.67V329.316H435.993V331.51ZM421.348 331.51H414.025V329.316H421.348V331.51ZM406.702 331.51H399.38V329.316H406.702V331.51ZM392.057 331.51H384.735V329.316H392.057V331.51ZM377.412 331.51H370.089V329.316H377.412V331.51ZM362.767 331.51H355.444V329.316H362.767V331.51ZM348.122 331.51H340.799V329.316H348.122V331.51ZM333.476 331.51H326.154V329.316H333.476V331.51ZM318.831 331.51H311.509V329.316H318.831V331.51ZM304.186 331.51H296.863V329.316H304.186V331.51ZM289.541 331.51H282.218V329.316H289.541V331.51ZM274.896 331.51H267.573V329.316H274.896V331.51ZM260.25 331.51H252.928V329.316H260.25V331.51ZM245.605 331.51H238.282V329.316H245.605V331.51ZM230.96 331.51H223.637V329.316H230.96V331.51ZM216.315 331.51H208.992V329.316H216.315V331.51ZM201.669 331.51H194.347V329.316H201.669V331.51ZM187.024 331.51H179.702V329.316H187.024V331.51ZM172.379 331.51H165.056V329.316H172.379V331.51ZM157.734 331.51H150.411V329.316H157.734V331.51ZM143.089 331.51H135.766V329.316H143.089V331.51ZM128.443 331.51H121.121V329.316H128.443V331.51ZM113.798 331.51H106.476V329.316H113.798V331.51ZM99.1529 331.51H91.8303V329.316H99.1529V331.51ZM84.5077 331.51H77.1851V329.316H84.5077V331.51ZM69.8625 331.51H62.5399V329.316H69.8625V331.51ZM55.2172 331.51H47.8946V329.316H55.2172V331.51ZM40.572 331.51H33.2494V329.316H40.572V331.51ZM25.9268 331.51H18.6042V329.316H25.9268V331.51ZM11.2816 331.51H3.95898V329.316H11.2816V331.51Z" fill="#36B37E"/>
</g>
<defs>
<linearGradient id="paint0_linear_215_851" x1="790.207" y1="258.993" x2="790.127" y2="324.109" gradientUnits="userSpaceOnUse">
<stop stop-color="#36B37E"/>
<stop offset="1" stop-color="#2CAF82"/>
</linearGradient>
<linearGradient id="paint1_linear_215_851" x1="790.065" y1="377.79" x2="790.136" y2="319.238" gradientUnits="userSpaceOnUse">
<stop stop-color="#36B37E"/>
<stop offset="1" stop-color="#2CAF82"/>
</linearGradient>
<linearGradient id="paint2_linear_215_851" x1="793.176" y1="331.013" x2="793.713" y2="316.346" gradientUnits="userSpaceOnUse">
<stop stop-color="#00512F"/>
<stop offset="1" stop-color="#36B37E"/>
</linearGradient>
<linearGradient id="paint3_linear_215_851" x1="727.852" y1="331.558" x2="903.817" y2="331.773" gradientUnits="userSpaceOnUse">
<stop stop-color="#076A48"/>
<stop offset="0.9999" stop-color="#2CAF82"/>
<stop offset="1" stop-color="#C90000"/>
<stop offset="1" stop-color="#36B37E"/>
</linearGradient>
<radialGradient id="paint4_radial_215_851" cx="0" cy="0" r="1" gradientUnits="userSpaceOnUse" gradientTransform="translate(-313615 -452126) rotate(-90) scale(33962.6 34197.1)">
<stop/>
<stop offset="1" stop-color="white"/>
</radialGradient>
<linearGradient id="paint5_linear_215_851" x1="595.634" y1="253.634" x2="595.634" y2="191.608" gradientUnits="userSpaceOnUse">
<stop stop-color="#C6C6C6"/>
<stop offset="1" stop-color="#EDEDED"/>
</linearGradient>
<linearGradient id="paint6_linear_215_851" x1="595.634" y1="140.48" x2="595.634" y2="196.246" gradientUnits="userSpaceOnUse">
<stop stop-color="#EDEDED"/>
<stop offset="1" stop-color="#DADADA"/>
</linearGradient>
<linearGradient id="paint7_linear_215_851" x1="598.543" y1="185.04" x2="599.036" y2="199.009" gradientUnits="userSpaceOnUse">
<stop stop-color="#878787"/>
<stop offset="1" stop-color="white"/>
</linearGradient>
<linearGradient id="paint8_linear_215_851" x1="536.323" y1="184.441" x2="703.926" y2="184.441" gradientUnits="userSpaceOnUse">
<stop stop-color="#575756"/>
<stop offset="1" stop-color="#C6C6C6"/>
</linearGradient>
<radialGradient id="paint9_radial_215_851" cx="0" cy="0" r="1" gradientUnits="userSpaceOnUse" gradientTransform="translate(-313853 -324064) rotate(-90) scale(33962.6 34197.1)">
<stop/>
<stop offset="1" stop-color="white"/>
</radialGradient>
<linearGradient id="paint10_linear_215_851" x1="262158" y1="99738" x2="282195" y2="99738" gradientUnits="userSpaceOnUse">
<stop stop-color="#C6C6C6"/>
<stop offset="1" stop-color="#EDEDED"/>
</linearGradient>
<linearGradient id="paint11_linear_215_851" x1="298712" y1="99694.5" x2="280698" y2="99694.5" gradientUnits="userSpaceOnUse">
<stop stop-color="#EDEDED"/>
<stop offset="1" stop-color="#DADADA"/>
</linearGradient>
<linearGradient id="paint12_linear_215_851" x1="269388" y1="14574.1" x2="266342" y2="12634.4" gradientUnits="userSpaceOnUse">
<stop stop-color="#878787"/>
<stop offset="1" stop-color="white"/>
</linearGradient>
<linearGradient id="paint13_linear_215_851" x1="269570" y1="15622.9" x2="269570" y2="12780.5" gradientUnits="userSpaceOnUse">
<stop stop-color="#575756"/>
<stop offset="1" stop-color="#C6C6C6"/>
</linearGradient>
<radialGradient id="paint14_radial_215_851" cx="0" cy="0" r="1" gradientUnits="userSpaceOnUse" gradientTransform="translate(-356808 -521407) rotate(-90) scale(33962.6 34197.2)">
<stop/>
<stop offset="1" stop-color="white"/>
</radialGradient>
<linearGradient id="paint15_linear_215_851" x1="386546" y1="113544" x2="406583" y2="113544" gradientUnits="userSpaceOnUse">
<stop stop-color="#C6C6C6"/>
<stop offset="1" stop-color="#EDEDED"/>
</linearGradient>
<linearGradient id="paint16_linear_215_851" x1="423099" y1="113491" x2="405085" y2="113491" gradientUnits="userSpaceOnUse">
<stop stop-color="#EDEDED"/>
<stop offset="1" stop-color="#DADADA"/>
</linearGradient>
<linearGradient id="paint17_linear_215_851" x1="387223" y1="16214.5" x2="384177" y2="14274.8" gradientUnits="userSpaceOnUse">
<stop stop-color="#878787"/>
<stop offset="1" stop-color="white"/>
</linearGradient>
<linearGradient id="paint18_linear_215_851" x1="387405" y1="17263.5" x2="387405" y2="14421.1" gradientUnits="userSpaceOnUse">
<stop stop-color="#575756"/>
<stop offset="1" stop-color="#C6C6C6"/>
</linearGradient>
<radialGradient id="paint19_radial_215_851" cx="0" cy="0" r="1" gradientUnits="userSpaceOnUse" gradientTransform="translate(-354706 -237445) rotate(-90) scale(33962.6 34197.2)">
<stop/>
<stop offset="1" stop-color="white"/>
</radialGradient>
<linearGradient id="paint20_linear_215_851" x1="207468" y1="113237" x2="227506" y2="113237" gradientUnits="userSpaceOnUse">
<stop stop-color="#C6C6C6"/>
<stop offset="1" stop-color="#EDEDED"/>
</linearGradient>
<linearGradient id="paint21_linear_215_851" x1="244021" y1="113185" x2="226007" y2="113185" gradientUnits="userSpaceOnUse">
<stop stop-color="#EDEDED"/>
<stop offset="1" stop-color="#DADADA"/>
</linearGradient>
<linearGradient id="paint22_linear_215_851" x1="217571" y1="16645.8" x2="214524" y2="14706.1" gradientUnits="userSpaceOnUse">
<stop stop-color="#878787"/>
<stop offset="1" stop-color="white"/>
</linearGradient>
<linearGradient id="paint23_linear_215_851" x1="217753" y1="17694.9" x2="217753" y2="14852.5" gradientUnits="userSpaceOnUse">
<stop stop-color="#575756"/>
<stop offset="1" stop-color="#C6C6C6"/>
</linearGradient>
<clipPath id="clip0_215_851">
<rect width="852" height="687" fill="white"/>
</clipPath>
</defs>
</svg>
