<svg width="84" height="84" viewBox="0 0 84 84" fill="none" xmlns="http://www.w3.org/2000/svg">
<path d="M77.5106 61.7021C77.0412 57.0102 74.408 52.9481 70.6283 50.5248C70.9668 49.6085 71.149 48.98 71.2087 48.763C78.8005 25.6058 60.9633 1.06228 36.5764 1.22396C36.5703 1.2238 36.5641 1.22396 36.558 1.2238C16.9278 0.764343 -0.400536 18.051 0.00704854 37.6815C-0.0791302 52.086 8.20224 65.4893 21.3421 71.0471C25.3111 72.7494 29.6113 73.7279 34.1517 73.9695C35.175 78.992 39.6261 82.783 44.9464 82.783H73.0229C84.9164 82.6174 88.2405 66.6215 77.5106 61.7021ZM62.5223 48.1494C59.487 48.1494 56.5533 49.0711 54.0833 50.7421C55.1056 47.2196 55.4242 43.9824 55.6127 40.1436H67.9049C67.6757 43.031 67.093 45.659 66.0965 48.5786C64.9504 48.2986 63.7535 48.1494 62.5223 48.1494ZM10.8518 56.5112C7.46996 51.7999 5.45338 46.1574 5.02068 40.1436H17.2155C17.4565 44.7301 18.3694 49.1397 19.9427 53.3381C15.9419 54.4567 12.7344 55.7093 10.8518 56.5112ZM10.9756 19.139C12.7699 19.9111 15.7485 21.0887 19.4616 22.1707C18.2671 25.8754 17.414 30.2084 17.2023 35.2191H5.02692C5.49081 29.2396 7.63132 23.7237 10.9756 19.139ZM67.9041 35.2191H55.5872C55.3491 30.2554 54.4881 25.951 53.2975 22.2626C57.1122 21.1759 60.1721 19.9806 62.0017 19.2023C65.3194 23.7744 67.4422 29.267 67.9041 35.2191ZM49.7575 47.9038C49.6445 48.3168 49.0552 50.4667 48.5309 52.2845C45.1992 51.4808 42.3267 51.0766 38.9439 50.9504L38.9456 40.1436H50.6854C50.5784 42.8445 50.2696 45.4476 49.7575 47.9038ZM38.9465 35.2191L38.9482 24.7348C42.3001 24.5699 45.5398 24.0863 48.5129 23.4538C49.6275 26.8061 50.4233 30.7084 50.6583 35.2191H38.9465ZM34.0245 19.802C31.2824 19.6488 28.6062 19.256 26.1087 18.7409C27.8656 15.0249 31.1054 10.8267 34.0263 8.42375L34.0245 19.802ZM34.0237 24.7339L34.022 35.2191H22.1305C22.3216 30.9604 23.0183 27.0088 24.2151 23.3845C27.254 24.0502 30.5792 24.562 34.0237 24.7339ZM38.949 19.8031L38.9508 8.5398C41.2487 10.5899 44.231 13.9096 46.6201 18.8043C44.1923 19.2887 41.6013 19.6569 38.949 19.8031ZM51.508 17.6337C49.4004 13.123 47.4551 10.3312 44.6312 7.22135C49.985 8.65799 54.7805 11.471 58.6135 15.2575C56.8364 15.9556 54.3857 16.8322 51.508 17.6337ZM26.1245 9.56131C24.5074 11.593 22.7687 14.237 21.2556 17.5459C18.4726 16.7519 16.1013 15.8922 14.3716 15.2045C18.1496 11.4904 22.8556 8.71889 28.1064 7.27371C27.4537 7.96675 26.7886 8.72677 26.1245 9.56131ZM22.1491 40.1436H34.0211L34.0193 50.9629C30.7921 51.1164 27.6678 51.5661 24.7835 52.1612C23.4093 48.6599 22.4191 44.6544 22.1491 40.1436ZM34.0186 55.8936L34.017 66.1934C31.788 63.9521 29.1634 60.8098 26.9426 56.7649C29.198 56.3411 31.5829 56.0235 34.0186 55.8936ZM38.9431 55.8774C40.2043 55.9283 41.3797 56.0218 42.5401 56.1673C41.0312 57.8109 39.983 59.8723 39.5718 62.1512C39.3571 62.272 39.147 62.3997 38.9421 62.534L38.9431 55.8774ZM14.232 60.4583C16.1305 59.7111 18.809 58.7562 21.9596 57.9076C22.6182 59.1976 23.3421 60.4654 24.1345 61.7085C25.82 64.3526 27.6197 66.5831 29.3098 68.4089C23.4946 67.2229 18.3761 64.5345 14.232 60.4583ZM73.0229 77.8585H44.9464C41.5874 77.8585 38.8546 75.1258 38.8546 71.7668C38.8546 69.2704 40.4181 66.987 42.7453 66.0847C43.6476 65.7347 44.2614 64.8886 44.3138 63.922C44.4856 60.7439 46.7248 58.099 49.8036 57.3833C51.2264 56.8147 53.5442 58.0151 54.9197 56.5057C61.1242 49.469 72.8511 54.0381 72.6587 63.422C72.6352 64.5686 73.4066 65.5796 74.5187 65.8598C81.4105 67.748 80.1672 77.7095 73.0229 77.8585Z" fill="#36B37E"/>
</svg>
