<svg width="95" height="84" viewBox="0 0 95 84" fill="none" xmlns="http://www.w3.org/2000/svg">
<g clip-path="url(#clip0_167_223)">
<path d="M73.3072 46.1016C68.4225 46.1016 63.9173 47.5704 60.3186 50.0359C59.8313 49.6558 59.1945 49.4237 58.4952 49.4237H48.2198C56.1015 44.5039 61.2637 36.3646 61.2637 27.1727C61.2637 12.1897 47.5504 0 30.6945 0C13.8386 0 0.125185 12.1897 0.125185 27.1729C0.125185 36.3648 5.28743 44.5041 13.1691 49.4238H2.89356C1.36457 49.4238 0.125 50.5257 0.125 51.8848V81.5391C0.125 82.8982 1.36457 84 2.89356 84H58.4952C60.0242 84 61.2637 82.8982 61.2637 81.5391V80.6776C64.6927 82.7722 68.8413 84 73.3072 84C85.0619 84 94.625 75.4994 94.625 65.0508C94.625 54.6021 85.0619 46.1016 73.3072 46.1016ZM5.6623 27.1729C5.6623 14.9036 16.8917 4.92188 30.6945 4.92188C44.4972 4.92188 55.7266 14.9036 55.7266 27.1729C55.7266 39.4421 44.4972 49.4238 30.6945 49.4238C16.8917 49.4238 5.6623 39.4419 5.6623 27.1729ZM73.3072 79.0781C64.6056 79.0781 57.5264 72.7855 57.5264 65.0508C57.5264 57.3161 64.6056 51.0234 73.3072 51.0234C82.0087 51.0234 89.0879 57.3161 89.0879 65.0508C89.0879 72.7855 82.0087 79.0781 73.3072 79.0781ZM52.5039 69.1934H5.66211V64.2305H52.0105C51.9974 64.5026 51.9893 64.7758 51.9893 65.0508C51.9893 66.4734 52.1679 67.8594 52.5039 69.1934ZM5.66211 54.3457H55.7266V54.3462C54.5583 55.8575 53.6299 57.5262 52.9908 59.3086H5.66211V54.3457ZM5.66211 79.0781V74.1152H54.591C54.9387 74.6801 55.3184 75.2272 55.7266 75.7555V79.0781H5.66211Z" fill="#36B37E"/>
<path d="M80.8247 58.3673C79.7637 57.4243 77.9699 57.4246 76.9094 58.3673C73.2026 61.6622 69.4957 64.9572 65.789 68.2521C64.7318 69.192 64.7318 70.7926 65.789 71.7323C66.8499 72.6753 68.6438 72.675 69.7043 71.7323C73.411 68.4374 77.1179 65.1424 80.8247 61.8476C81.8819 60.9078 81.8819 59.3072 80.8247 58.3673Z" fill="#36B37E"/>
<path d="M67.7475 62.5703C69.1956 62.5703 70.583 61.4384 70.516 60.1094C70.4488 58.776 69.2995 57.6484 67.7475 57.6484C66.2993 57.6484 64.9119 58.7803 64.9789 60.1094C65.0461 61.4427 66.1954 62.5703 67.7475 62.5703Z" fill="#36B37E"/>
<path d="M78.8666 67.5312C77.4185 67.5312 76.031 68.6631 76.098 69.9922C76.1652 71.3255 77.3145 72.4531 78.8666 72.4531C80.3147 72.4531 81.7021 71.3213 81.6351 69.9922C81.568 68.6589 80.4186 67.5312 78.8666 67.5312Z" fill="#36B37E"/>
<path d="M33.4625 42V39.0963C36.6979 38.0794 39.0227 35.3348 39.0227 32.1151C39.0227 28.0329 35.2865 24.7117 30.694 24.7117C29.9483 24.7117 29.2471 24.4537 28.72 23.985C28.1929 23.5164 27.9023 22.8931 27.9023 22.2303C27.9023 20.8624 29.1543 19.7494 30.693 19.749H30.694H30.6958H36.2542C37.7831 19.749 39.0227 18.6472 39.0227 17.2881C39.0227 15.929 37.7831 14.8271 36.2542 14.8271H33.4625V12.3457C33.4625 10.9866 32.223 9.88477 30.694 9.88477C29.165 9.88477 27.9254 10.9866 27.9254 12.3457V15.2493C24.6901 16.2661 22.3652 19.0109 22.3652 22.2305C22.3652 24.2079 23.2314 26.0671 24.8047 27.4654C26.378 28.8637 28.4693 29.6338 30.694 29.6336C32.2333 29.6336 33.4856 30.7468 33.4856 32.1151C33.4856 33.4834 32.2333 34.5965 30.694 34.5965H25.1338C23.6048 34.5965 22.3652 35.6984 22.3652 37.0575C22.3652 38.4165 23.6048 39.5184 25.1338 39.5184H27.9254V42C27.9254 43.3591 29.165 44.4609 30.694 44.4609C32.223 44.4609 33.4625 43.3591 33.4625 42Z" fill="#36B37E"/>
</g>
<defs>
<clipPath id="clip0_167_223">
<rect width="94.5" height="84" fill="white" transform="translate(0.125)"/>
</clipPath>
</defs>
</svg>
