<svg width="54" height="54" viewBox="0 0 54 54" fill="none" xmlns="http://www.w3.org/2000/svg">
<g clip-path="url(#clip0_249_312)">
<path d="M2.8781 21.2524C3.06926 21.3303 3.27155 21.369 3.47383 21.369C3.68312 21.369 3.89241 21.3274 4.08893 21.2442L8.82102 19.2472C9.62564 18.9074 10.003 17.9796 9.66313 17.1745C9.32365 16.3695 8.39544 15.9925 7.59042 16.332L6.43314 16.8206C10.0244 8.64515 18.1505 3.26954 27.192 3.26954C37.5296 3.26954 46.5571 10.2597 49.1452 20.2682C49.3297 20.9813 49.9716 21.4547 50.6757 21.4547C50.8067 21.4547 50.9402 21.4382 51.0729 21.404C51.9187 21.1852 52.4271 20.3221 52.2083 19.4763C49.2593 8.07084 38.9719 0.105469 27.192 0.105469C16.8309 0.105469 7.52573 6.30094 3.46848 15.7054L2.93454 14.4398C2.59465 13.6351 1.66685 13.2578 0.861828 13.5972C0.0568036 13.9371 -0.320165 14.8653 0.0193127 15.67L2.01622 20.4021C2.17937 20.7885 2.48918 21.0946 2.8781 21.2524Z" fill="#36B37E"/>
<path d="M53.7691 38.2202L51.7721 33.4885C51.609 33.1017 51.2988 32.796 50.9103 32.6378C50.5214 32.48 50.0859 32.4828 49.6994 32.646L44.9673 34.6433C44.1627 34.9828 43.7854 35.911 44.1252 36.716C44.4647 37.521 45.3929 37.898 46.198 37.5581L47.5225 36.9991C44.021 45.3937 35.7812 50.9415 26.5968 50.9415C16.2588 50.9415 7.23131 43.9513 4.6432 33.9429C4.42444 33.0967 3.56132 32.5891 2.71551 32.8071C1.8697 33.0258 1.36131 33.889 1.58007 34.7348C4.52908 46.1402 14.8164 54.1056 26.5968 54.1056C37.016 54.1056 46.3677 47.8401 50.3879 38.3463L50.8538 39.4504C51.1088 40.0548 51.6951 40.4177 52.3123 40.4177C52.517 40.4177 52.7259 40.3778 52.9265 40.2929C53.7316 39.953 54.1085 39.0252 53.7691 38.2202Z" fill="#36B37E"/>
<path d="M23.7214 44.5193C23.8965 44.5827 24.0777 44.6128 24.257 44.6128C24.7196 44.6128 25.1699 44.4097 25.4764 44.0389L38.7292 28.008C39.1198 27.5355 39.2022 26.8804 38.9414 26.3259C38.6802 25.7718 38.1228 25.4179 37.5102 25.4179H31.7452V11.0745C31.7452 10.4071 31.3267 9.81178 30.6988 9.5856C30.0713 9.35983 29.3693 9.55223 28.9437 10.0664L15.6909 26.0972C15.3003 26.5694 15.2179 27.2249 15.4787 27.779C15.7399 28.3335 16.2978 28.6874 16.9104 28.6874H22.6753V43.0308C22.6749 43.6982 23.0935 44.2935 23.7214 44.5193Z" fill="#36B37E"/>
</g>
<defs>
<clipPath id="clip0_249_312">
<rect width="54" height="54" fill="white"/>
</clipPath>
</defs>
</svg>
