<svg width="25" height="20" viewBox="0 0 25 20" fill="none" xmlns="http://www.w3.org/2000/svg">
<path fill-rule="evenodd" clip-rule="evenodd" d="M15.9489 11.2231C15.1035 11.9185 13.8706 12.9329 12.9669 12.9163C12.0632 12.9329 10.8303 11.9185 9.98498 11.2231C9.81022 11.0793 9.65202 10.9491 9.51672 10.8445C3.73539 6.37794 2.90467 5.68583 1.66882 4.6562C1.5713 4.57495 1.47125 4.4916 1.36605 4.40412C1.09343 4.1739 0.933594 3.82864 0.933594 3.4583V2.5075C0.933594 1.18138 1.94421 0.105469 3.18984 0.105469H22.744C23.9896 0.105469 25.0002 1.18138 25.0002 2.5075V3.4583C25.0002 3.82864 24.8404 4.17893 24.5678 4.40412C24.4873 4.47131 24.4099 4.53605 24.3343 4.59926C23.0583 5.66593 22.3057 6.29505 16.4171 10.8445C16.2818 10.9491 16.1236 11.0793 15.9489 11.2231ZM25.0002 16.9182C25.0002 18.2444 23.9896 19.3203 22.744 19.3203H3.18984C1.94421 19.3203 0.933594 18.2444 0.933594 16.9182V6.68907C0.933594 6.43885 1.20153 6.29873 1.38955 6.4539C1.70861 6.71776 2.05918 7.00323 2.52628 7.37616L2.82121 7.61095C3.90714 8.47312 5.58197 9.77912 8.63303 12.1389C8.78339 12.2558 8.94942 12.3922 9.12871 12.5395C10.1321 13.3638 11.5512 14.5295 12.9669 14.521C14.3892 14.5338 15.8317 13.3458 16.8195 12.5323C16.9971 12.386 17.16 12.2518 17.3055 12.1389C22.1 8.43066 23.4914 7.31966 24.5443 6.44887C24.7276 6.29375 25.0002 6.43885 25.0002 6.68409V16.9182Z" fill="#959EAD" fill-opacity="0.5"/>
</svg>
