<svg width="16" height="16" viewBox="0 0 16 16" fill="none" xmlns="http://www.w3.org/2000/svg">
<path d="M13.2518 13.2063H11.0351V9.73186C11.0351 8.90339 11.0184 7.83701 9.87885 7.83701C8.72347 7.83701 8.54713 8.73869 8.54713 9.67114V13.2063H6.32954V6.06194H8.45896V7.03516H8.48807C8.78586 6.47452 9.50952 5.88144 10.5909 5.88144C12.8367 5.88144 13.2526 7.36039 13.2526 9.28435V13.2063H13.2518ZM3.82581 5.08457C3.65658 5.08479 3.48898 5.05161 3.3326 4.98693C3.17622 4.92224 3.03415 4.82733 2.91453 4.70763C2.79491 4.58793 2.70009 4.4458 2.6355 4.28938C2.57092 4.13296 2.53784 3.96534 2.53817 3.79611C2.53834 3.54144 2.61402 3.29254 2.75564 3.08088C2.89726 2.86922 3.09847 2.70431 3.33382 2.60701C3.56917 2.5097 3.82808 2.48437 4.07783 2.53421C4.32757 2.58406 4.55693 2.70684 4.73689 2.88704C4.91685 3.06723 5.03934 3.29674 5.08886 3.54655C5.13838 3.79636 5.11272 4.05524 5.01511 4.29047C4.9175 4.52569 4.75233 4.72668 4.54048 4.86803C4.32864 5.00938 4.07964 5.08474 3.82497 5.08457H3.82581ZM4.9371 13.2063H2.71368V6.06194H4.93793V13.2063H4.9371ZM14.3623 0.447266H1.60156C0.989354 0.447266 0.496094 0.929712 0.496094 1.52612V14.3409C0.496094 14.9373 0.990186 15.4197 1.60073 15.4197H14.3589C14.9695 15.4197 15.4686 14.9373 15.4686 14.3409V1.52612C15.4686 0.929712 14.9695 0.447266 14.3589 0.447266H14.3614H14.3623Z" fill="#0274B3"/>
</svg>
