<svg width="342" height="1130" viewBox="0 0 342 1130" fill="none" xmlns="http://www.w3.org/2000/svg">
<path d="M173.418 135V906" stroke="#2CAF82" stroke-dasharray="16 16"/>
<g filter="url(#filter0_d_282_502)">
<circle cx="170.5" cy="123.5" r="62.5" fill="white"/>
</g>
<path d="M181.328 133.192V139H161.84V133.192H168.656V118.648C168.368 119.032 167.92 119.432 167.312 119.848C166.704 120.232 166.016 120.6 165.248 120.952C164.48 121.304 163.712 121.592 162.944 121.816C162.176 122.04 161.488 122.152 160.88 122.152V116.152C161.456 116.152 162.144 115.976 162.944 115.624C163.776 115.24 164.592 114.792 165.392 114.28C166.224 113.768 166.928 113.272 167.504 112.792C168.112 112.28 168.496 111.88 168.656 111.592H175.232V133.192H181.328Z" fill="#2CAF82"/>
<g filter="url(#filter1_d_282_502)">
<circle cx="171.5" cy="507.5" r="62.5" fill="white"/>
</g>
<path d="M160.509 521C160.509 519.56 160.621 518.264 160.845 517.112C161.069 515.96 161.453 514.888 161.997 513.896C162.573 512.904 163.341 511.976 164.301 511.112C165.293 510.216 166.541 509.352 168.045 508.52C169.357 507.816 170.509 507.208 171.501 506.696C172.493 506.152 173.325 505.656 173.997 505.208C174.701 504.76 175.229 504.312 175.581 503.864C175.933 503.384 176.109 502.84 176.109 502.232C176.109 501.592 175.933 501.016 175.581 500.504C175.229 499.96 174.733 499.528 174.093 499.208C173.453 498.888 172.653 498.728 171.693 498.728C170.925 498.728 170.205 498.824 169.533 499.016C168.893 499.208 168.285 499.48 167.709 499.832C167.165 500.184 166.653 500.584 166.173 501.032C165.693 501.448 165.261 501.896 164.877 502.376L160.797 497.672C161.245 497.224 161.837 496.744 162.573 496.232C163.341 495.688 164.237 495.192 165.261 494.744C166.317 494.264 167.469 493.88 168.717 493.592C169.997 493.272 171.357 493.112 172.797 493.112C174.973 493.112 176.829 493.464 178.365 494.168C179.901 494.84 181.069 495.784 181.869 497C182.701 498.216 183.117 499.64 183.117 501.272C183.117 502.392 182.909 503.384 182.493 504.248C182.077 505.112 181.549 505.88 180.909 506.552C180.269 507.192 179.565 507.768 178.797 508.28C178.061 508.792 177.341 509.24 176.637 509.624C175.645 510.136 174.749 510.616 173.949 511.064C173.149 511.48 172.445 511.912 171.837 512.36C171.229 512.776 170.685 513.208 170.205 513.656C169.757 514.104 169.357 514.616 169.005 515.192H183.645V521H160.509Z" fill="#2CAF82"/>
<g filter="url(#filter2_d_282_502)">
<circle cx="170.5" cy="912.5" r="62.5" fill="white"/>
</g>
<path d="M174.486 909.672C175.83 909.896 176.998 910.408 177.99 911.208C178.982 911.976 179.75 912.968 180.294 914.184C180.87 915.4 181.158 916.744 181.158 918.216C181.158 920.2 180.646 921.928 179.622 923.4C178.598 924.872 177.142 926.008 175.254 926.808C173.398 927.64 171.206 928.056 168.678 928.056C166.246 928.056 164.086 927.656 162.198 926.856C160.342 926.088 158.79 924.952 157.542 923.448L161.19 918.888C162.022 919.912 163.014 920.712 164.166 921.288C165.35 921.896 166.79 922.2 168.486 922.2C170.438 922.2 171.926 921.8 172.95 921C173.974 920.232 174.486 919.064 174.486 917.496C174.486 915.832 173.894 914.552 172.71 913.656C171.526 912.76 169.734 912.312 167.334 912.312H165.99V907.512H167.478C169.43 907.512 170.95 907.064 172.038 906.168C173.158 905.272 173.718 904.152 173.718 902.808C173.718 901.944 173.51 901.224 173.094 900.648C172.678 900.072 172.102 899.64 171.366 899.352C170.662 899.064 169.83 898.92 168.87 898.92C167.43 898.92 166.118 899.256 164.934 899.928C163.75 900.6 162.79 901.544 162.054 902.76L158.022 898.248C158.694 897.256 159.606 896.408 160.758 895.704C161.942 894.968 163.286 894.392 164.79 893.976C166.326 893.56 167.926 893.352 169.59 893.352C171.766 893.352 173.67 893.704 175.302 894.408C176.966 895.112 178.262 896.104 179.19 897.384C180.118 898.664 180.582 900.152 180.582 901.848C180.582 903.096 180.326 904.28 179.814 905.4C179.302 906.52 178.582 907.464 177.654 908.232C176.758 908.968 175.702 909.448 174.486 909.672Z" fill="#2CAF82"/>
<defs>
<filter id="filter0_d_282_502" x="0" y="0" width="341" height="341" filterUnits="userSpaceOnUse" color-interpolation-filters="sRGB">
<feFlood flood-opacity="0" result="BackgroundImageFix"/>
<feColorMatrix in="SourceAlpha" type="matrix" values="0 0 0 0 0 0 0 0 0 0 0 0 0 0 0 0 0 0 127 0" result="hardAlpha"/>
<feOffset dy="47"/>
<feGaussianBlur stdDeviation="54"/>
<feComposite in2="hardAlpha" operator="out"/>
<feColorMatrix type="matrix" values="0 0 0 0 0.172549 0 0 0 0 0.686275 0 0 0 0 0.509804 0 0 0 0.21 0"/>
<feBlend mode="normal" in2="BackgroundImageFix" result="effect1_dropShadow_282_502"/>
<feBlend mode="normal" in="SourceGraphic" in2="effect1_dropShadow_282_502" result="shape"/>
</filter>
<filter id="filter1_d_282_502" x="1" y="384" width="341" height="341" filterUnits="userSpaceOnUse" color-interpolation-filters="sRGB">
<feFlood flood-opacity="0" result="BackgroundImageFix"/>
<feColorMatrix in="SourceAlpha" type="matrix" values="0 0 0 0 0 0 0 0 0 0 0 0 0 0 0 0 0 0 127 0" result="hardAlpha"/>
<feOffset dy="47"/>
<feGaussianBlur stdDeviation="54"/>
<feComposite in2="hardAlpha" operator="out"/>
<feColorMatrix type="matrix" values="0 0 0 0 0.172549 0 0 0 0 0.686275 0 0 0 0 0.509804 0 0 0 0.21 0"/>
<feBlend mode="normal" in2="BackgroundImageFix" result="effect1_dropShadow_282_502"/>
<feBlend mode="normal" in="SourceGraphic" in2="effect1_dropShadow_282_502" result="shape"/>
</filter>
<filter id="filter2_d_282_502" x="0" y="789" width="341" height="341" filterUnits="userSpaceOnUse" color-interpolation-filters="sRGB">
<feFlood flood-opacity="0" result="BackgroundImageFix"/>
<feColorMatrix in="SourceAlpha" type="matrix" values="0 0 0 0 0 0 0 0 0 0 0 0 0 0 0 0 0 0 127 0" result="hardAlpha"/>
<feOffset dy="47"/>
<feGaussianBlur stdDeviation="54"/>
<feComposite in2="hardAlpha" operator="out"/>
<feColorMatrix type="matrix" values="0 0 0 0 0.172549 0 0 0 0 0.686275 0 0 0 0 0.509804 0 0 0 0.21 0"/>
<feBlend mode="normal" in2="BackgroundImageFix" result="effect1_dropShadow_282_502"/>
<feBlend mode="normal" in="SourceGraphic" in2="effect1_dropShadow_282_502" result="shape"/>
</filter>
</defs>
</svg>
