<svg width="12" height="10" viewBox="0 0 12 10" fill="none" xmlns="http://www.w3.org/2000/svg">
<path d="M4.07812 9.79058L0.164062 5.44503C0.0546874 5.32286 0 5.16579 0 4.97382C0 4.78185 0.0546874 4.62478 0.164062 4.50262L1.03125 3.56021C1.14063 3.42059 1.27734 3.35079 1.44141 3.35079C1.60547 3.35079 1.75 3.42059 1.875 3.56021L4.5 6.49215L10.125 0.209424C10.25 0.0698082 10.3945 0 10.5586 0C10.7227 0 10.8594 0.0698082 10.9688 0.209424L11.8359 1.15183C11.9453 1.274 12 1.43106 12 1.62304C12 1.81501 11.9453 1.97208 11.8359 2.09424L4.92188 9.79058C4.8125 9.93019 4.67188 10 4.5 10C4.32812 10 4.1875 9.93019 4.07812 9.79058Z" fill="#36B37E"/>
</svg>
