<svg width="84" height="84" viewBox="0 0 84 84" fill="none" xmlns="http://www.w3.org/2000/svg">
<path d="M80.8044 19.4081L43.7117 0.613588L43.6962 0.605877C42.0446 -0.216404 40.0821 -0.198029 38.4459 0.655095L22.5369 9.09841C22.4077 9.1532 22.2835 9.21965 22.1645 9.2961L3.10013 19.4142C1.18781 20.4154 0 22.3773 0 24.5365V59.4623C0 61.6215 1.18781 63.5832 3.10013 64.5845L38.4302 83.3355L38.4461 83.3439C39.2805 83.779 40.2001 83.997 41.1198 83.997C42.0033 83.997 42.8871 83.7959 43.6962 83.3929L80.8044 64.5907C82.7758 63.6049 84 61.6243 84 59.4196V24.5793C84 22.3745 82.7758 20.3938 80.8044 19.4081ZM40.7264 5.01473C40.9674 4.89102 41.2552 4.88856 41.4983 5.00784L76.2187 22.6003L62.7058 29.3276L28.7615 11.3649L40.7264 5.01473ZM38.6242 77.8685L5.3993 60.2345L5.38338 60.2262C5.09775 60.077 4.92007 59.7845 4.92007 59.4623V26.7566L38.6242 44.3316V77.8685ZM41.1103 40.0791L7.5915 22.6007L23.5095 14.1527L57.2859 32.0261L41.1103 40.0791ZM79.0796 59.4193C79.0798 59.7486 78.8967 60.0442 78.602 60.1909L43.5445 77.9541V44.3633L59.6859 36.3272V44.7526C59.6859 46.1112 60.7875 47.2127 62.1461 47.2127C63.5047 47.2127 64.6062 46.1112 64.6062 44.7526V33.8776L79.0796 26.672V59.4193Z" fill="#36B37E"/>
</svg>
