<svg width="84" height="84" viewBox="0 0 84 84" fill="none" xmlns="http://www.w3.org/2000/svg">
<path d="M80.3868 63.6038C82.7531 59.2682 84 54.3818 84 49.4137C84 33.3915 71.223 20.2993 55.323 19.7868C50.1931 10.9202 40.604 4.94141 29.6445 4.94141C13.2984 4.94141 0 18.24 0 34.586C0 39.554 1.24688 44.4404 3.61315 48.776L1.81387 59.5849C1.68345 60.3686 1.93938 61.1673 2.5013 61.729C3.06305 62.2908 3.8617 62.5462 4.64543 62.4164L15.4545 60.617C19.5083 62.8297 24.044 64.063 28.6776 64.2139C33.8077 73.08 43.3965 79.0581 54.3557 79.0581C59.3239 79.0581 64.2098 77.8114 68.5456 75.445L79.3547 77.2444C80.1381 77.374 80.937 77.1187 81.4989 76.557C82.0608 75.9951 82.3167 75.1966 82.1861 74.4128L80.3868 63.6038ZM15.9086 55.5859C15.774 55.5859 15.6388 55.5969 15.5046 55.6192L7.23434 56.996L8.61115 48.7259C8.70581 48.1573 8.59786 47.5737 8.30616 47.0764C6.09213 43.3028 4.92188 38.9839 4.92188 34.586C4.92188 20.9539 16.0123 9.86328 29.6445 9.86328C43.2764 9.86328 54.367 20.9539 54.367 34.5859C54.367 48.2178 43.2764 59.3084 29.6445 59.3084C25.2466 59.3084 20.9275 58.1382 17.154 55.9242C16.7744 55.7014 16.3442 55.5859 15.9086 55.5859ZM75.3889 63.5536L76.7658 71.8238L68.4956 70.4471C67.9275 70.3521 67.3434 70.4601 66.8461 70.752C63.0727 72.966 58.7536 74.1362 54.3557 74.1362C46.1137 74.1362 38.8019 70.0811 34.3074 63.8623C36.3436 63.5393 38.3111 63.0076 40.1879 62.2909C40.5715 62.5378 41.0271 62.6829 41.5172 62.6829H67.2074C68.5665 62.6829 69.6683 61.581 69.6683 60.2219C69.6683 58.8628 68.5665 57.761 67.2074 57.761H48.1072C50.232 56.0648 52.1194 54.0834 53.7106 51.8746H67.2074C68.5665 51.8746 69.6683 50.7728 69.6683 49.4137C69.6683 48.0546 68.5665 46.9527 67.2074 46.9527H56.5829C57.443 45.0865 58.1147 43.1163 58.5736 41.0665H67.2076C68.5666 41.0665 69.6685 39.9646 69.6685 38.6056C69.6685 37.2465 68.5666 36.1446 67.2076 36.1446H59.2479C59.2748 35.6283 59.2887 35.1087 59.2887 34.5859C59.2887 31.2004 58.7168 27.9464 57.667 24.9136C69.739 26.537 79.0781 36.9044 79.0781 49.4137C79.0781 53.8117 77.9079 58.1306 75.6938 61.9041C75.4021 62.4013 75.2943 62.9849 75.3889 63.5536Z" fill="#36B37E"/>
<path d="M25.9141 26.8592C25.9141 24.8023 27.5875 23.1289 29.6444 23.1289C31.7012 23.1289 33.3746 24.8023 33.3746 26.8592C33.3746 28.916 31.7012 30.5895 29.6444 30.5895C28.2853 30.5895 27.1834 31.6913 27.1834 33.0504V40.302C27.1834 41.6611 28.2853 42.7629 29.6444 42.7629C31.0034 42.7629 32.1053 41.6611 32.1053 40.302V35.1549C35.681 34.0922 38.2965 30.7754 38.2965 26.8592C38.2965 22.0884 34.4151 18.207 29.6444 18.207C24.8736 18.207 20.9922 22.0884 20.9922 26.8592C20.9922 28.2183 22.094 29.3201 23.4531 29.3201C24.8122 29.3201 25.9141 28.2183 25.9141 26.8592Z" fill="#36B37E"/>
<path d="M29.6447 46.043C28.3574 46.043 27.1242 47.1748 27.1837 48.5039C27.2434 49.8372 28.2651 50.9648 29.6447 50.9648C30.9319 50.9648 32.1651 49.833 32.1056 48.5039C32.0459 47.1706 31.0243 46.043 29.6447 46.043Z" fill="#36B37E"/>
</svg>
