<svg width="95" height="84" viewBox="0 0 95 84" fill="none" xmlns="http://www.w3.org/2000/svg">
<g clip-path="url(#clip0_167_247)">
<path d="M94.3583 2.5017C94.1426 1.5182 93.2777 0.749414 92.1711 0.557668C78.5204 -1.8084 61.3027 3.47044 46.6159 14.1908C42.7982 12.5435 38.4101 11.9314 34.1831 12.4708C29.5835 13.0579 25.418 14.9099 22.1367 17.8266L4.25617 33.7204C3.49868 34.3937 3.24606 35.3954 3.60829 36.2916C3.97052 37.188 4.88191 37.8181 5.94867 37.9091L24.1277 39.4619C23.7943 40.0941 23.4732 40.7275 23.168 41.3625C21.6866 44.4442 22.4221 47.8303 25.0878 50.1997L38.5107 62.1311C40.2657 63.6911 42.5164 64.5075 44.8387 64.5075C46.0437 64.5075 47.2682 64.2877 48.4525 63.8378C49.177 63.5627 49.8996 63.2732 50.6207 62.9722L52.3723 79.1745C52.4749 80.1224 53.1837 80.9327 54.1919 81.2547C54.4973 81.3521 54.8136 81.3995 55.1271 81.3995C55.8488 81.3995 56.5565 81.1482 57.0846 80.6788L74.9653 64.785C81.4605 59.0113 83.0331 50.2302 79.0343 42.9858C91.1398 29.8886 96.9945 14.5197 94.3583 2.5017ZM55.8383 54.8119L33.3221 34.7975C36.3456 30.5598 40.0238 26.4875 44.2279 22.7505C51.3686 16.4032 59.427 11.5305 67.4249 8.49339L85.4153 24.4849C82.6906 30.1653 78.6498 35.8935 73.4791 41.2114C72.184 42.5433 70.8088 43.8575 69.3912 45.1177C65.1871 48.8549 60.6058 52.1245 55.8383 54.8119ZM85.3192 4.90828C86.6493 4.90828 87.9541 4.97816 89.2249 5.11971C89.8394 9.50937 89.2233 14.3749 87.5108 19.3885L73.1569 6.62957C77.3418 5.50025 81.4441 4.90828 85.3192 4.90828ZM12.3214 33.5103L26.0509 21.3061C30.2174 17.6026 36.4412 16.3243 41.9711 17.8373C41.4137 18.3074 40.8606 18.7849 40.3135 19.2712C34.9777 24.0142 30.424 29.2763 26.8864 34.7544L12.3214 33.5103ZM46.2771 59.3133C44.9138 59.8311 43.4737 59.5839 42.4251 58.6519L29.0022 46.7206C27.9538 45.7886 27.6758 44.5087 28.2584 43.2965C28.9177 41.9253 29.6499 40.5593 30.4506 39.2039L50.8813 57.3647C49.3565 58.0764 47.8198 58.7272 46.2771 59.3133ZM71.051 61.3059L57.3212 73.51L55.9167 60.5174C62.0691 57.375 67.9786 53.3327 73.3058 48.5973C73.8592 48.1056 74.4036 47.604 74.9429 47.0985C76.7006 52.0286 75.2945 57.5339 71.051 61.3059Z" fill="#36B37E"/>
<path d="M67.9278 24.0503C64.4038 20.9181 58.6703 20.9182 55.1467 24.0503C51.623 27.1825 51.623 32.279 55.1467 35.4112C56.8536 36.9284 59.1231 37.7641 61.5373 37.7641C63.9513 37.7641 66.2209 36.9284 67.9278 35.4112C71.4513 32.279 71.4513 27.1825 67.9278 24.0503ZM64.0133 31.9317C63.352 32.5196 62.4725 32.8434 61.5373 32.8434C60.602 32.8434 59.7225 32.5196 59.0611 31.9317C57.696 30.7181 57.696 28.7434 59.0611 27.5298C59.7437 26.923 60.6405 26.6196 61.5372 26.6196C62.434 26.6196 63.3308 26.923 64.0133 27.5298C65.3785 28.7434 65.3785 30.7181 64.0133 31.9317Z" fill="#36B37E"/>
<path d="M27.559 59.9648C26.4782 59.0039 24.7256 59.0039 23.6446 59.9648L1.33026 79.7997C0.249289 80.7606 0.249289 82.3184 1.33026 83.2792C1.87074 83.7596 2.57915 83.9999 3.28737 83.9999C3.99559 83.9999 4.70418 83.7598 5.24448 83.2792L27.5588 63.4443C28.64 62.4834 28.64 60.9256 27.559 59.9648Z" fill="#36B37E"/>
<path d="M11.1568 62.2625L18.6935 55.5633C19.7745 54.6025 19.7745 53.0447 18.6935 52.0839C17.6129 51.123 15.8602 51.1232 14.7791 52.0839L7.24237 58.783C6.1614 59.7439 6.1614 61.3016 7.24237 62.2625C7.78285 62.7429 8.49126 62.9832 9.19948 62.9832C9.90789 62.983 10.6165 62.7427 11.1568 62.2625Z" fill="#36B37E"/>
<path d="M32.5113 67.8456L24.9748 74.5448C23.8938 75.5056 23.8938 77.0634 24.9748 78.0243C25.5153 78.5047 26.2237 78.745 26.9319 78.745C27.6401 78.745 28.3487 78.5049 28.889 78.0243L36.4256 71.3251C37.5065 70.3643 37.5065 68.8065 36.4256 67.8456C35.3448 66.8848 33.5921 66.8848 32.5113 67.8456Z" fill="#36B37E"/>
</g>
<defs>
<clipPath id="clip0_167_247">
<rect width="94.5" height="84" fill="white" transform="translate(0.5)"/>
</clipPath>
</defs>
</svg>
