<svg width="18" height="14" viewBox="0 0 18 14" fill="none" xmlns="http://www.w3.org/2000/svg">
<path d="M17.024 1.65606C16.389 1.93696 15.7155 2.12144 15.026 2.20339C15.7528 1.76872 16.2968 1.08463 16.5565 0.278597C15.8745 0.684517 15.1267 0.968994 14.3473 1.12288C13.8237 0.562723 13.1298 0.191227 12.3733 0.0661412C11.6169 -0.0589442 10.8403 0.0693905 10.1643 0.431194C9.48835 0.792997 8.95083 1.368 8.63535 2.0668C8.31987 2.76561 8.2441 3.54907 8.41982 4.29538C7.03662 4.22605 5.68346 3.8666 4.44819 3.24037C3.21293 2.61414 2.12317 1.73513 1.24967 0.660395C0.940476 1.19146 0.777996 1.79516 0.778865 2.40968C0.778865 3.6158 1.39274 4.68134 2.32602 5.30519C1.77371 5.2878 1.23356 5.13865 0.750584 4.87016V4.91341C0.75075 5.71668 1.02871 6.49518 1.53734 7.11691C2.04597 7.73864 2.75397 8.16533 3.54129 8.32464C3.02858 8.46358 2.49097 8.48406 1.96918 8.38453C2.19116 9.07595 2.62381 9.68065 3.20656 10.1139C3.78931 10.5472 4.49298 10.7874 5.21904 10.8009C4.49743 11.3677 3.6712 11.7866 2.78757 12.0338C1.90395 12.281 0.980268 12.3516 0.0693359 12.2416C1.65949 13.2643 3.51059 13.8072 5.4012 13.8054C11.8003 13.8054 15.2997 8.50431 15.2997 3.90693C15.2997 3.7572 15.2955 3.60581 15.2889 3.45775C15.97 2.96546 16.5579 2.35563 17.0248 1.6569L17.024 1.65606Z" fill="#1DA1F2"/>
</svg>
