<svg width="95" height="84" viewBox="0 0 95 84" fill="none" xmlns="http://www.w3.org/2000/svg">
<g clip-path="url(#clip0_264_64)">
<path d="M61.3369 8.69349C61.0133 7.79492 60.1401 7.13999 59.0892 7.00742L52.8673 6.22271L50.0968 1.35089C49.6257 0.522374 48.6702 0 47.6261 0C46.582 0 45.6265 0.522374 45.1553 1.35072L42.3849 6.22255L36.163 7.00726C35.1121 7.13982 34.2389 7.79476 33.9152 8.69333C33.5914 9.5919 33.8744 10.5759 34.6433 11.2264L39.1054 15.0014L38.0551 20.3165C37.8733 21.2365 38.2932 22.1689 39.1392 22.7231C39.9853 23.2775 41.1114 23.3582 42.0462 22.9316L47.6261 20.3857L53.206 22.9316C54.1407 23.3582 55.2669 23.2775 56.113 22.7233C56.9589 22.1689 57.3788 21.2367 57.197 20.3166L56.1468 15.0015L60.6089 11.2266C61.3779 10.5761 61.6606 9.59222 61.3369 8.69349ZM51.2544 12.3454C50.5829 12.9133 50.2758 13.7423 50.4362 14.5538L50.7797 16.2922L48.8902 15.43C48.0964 15.0678 47.1551 15.068 46.3616 15.43L44.472 16.2922L44.8155 14.5538C44.9759 13.7423 44.6688 12.9133 43.9973 12.3454L42.6034 11.1662L44.5927 10.9154C45.4888 10.8023 46.2664 10.307 46.6747 9.58911L47.6259 7.91616L48.5772 9.58911C48.9855 10.3072 49.7629 10.8025 50.6592 10.9154L52.6483 11.1662L51.2544 12.3454Z" fill="#36B37E"/>
<path d="M94.7453 23.623C94.4218 22.7244 93.5486 22.0695 92.4976 21.9369L86.2758 21.1522L83.5052 16.2804C83.0342 15.4519 82.0787 14.9297 81.0344 14.9297C79.9901 14.9297 79.0346 15.4521 78.5635 16.2804L75.7929 21.1522L69.5711 21.9369C68.5203 22.0695 67.6469 22.7244 67.3234 23.623C66.9997 24.5216 67.2824 25.5056 68.0513 26.1561L72.5135 29.931L71.4633 35.2462C71.2815 36.1662 71.7014 37.0986 72.5473 37.6528C73.3934 38.2072 74.5192 38.2877 75.4543 37.8613L81.0342 35.3154L86.6141 37.8613C87.5488 38.2879 88.675 38.2072 89.5211 37.653C90.367 37.0986 90.7869 36.1664 90.6051 35.2463L89.5549 29.9312L94.017 26.1563C94.7861 25.5056 95.0691 24.5217 94.7453 23.623ZM84.663 27.275C83.9916 27.843 83.6844 28.672 83.8448 29.4835L84.1883 31.2219L82.2987 30.3597C81.5052 29.9977 80.5637 29.9977 79.7702 30.3597L77.8806 31.2219L78.2241 29.4835C78.3845 28.672 78.0774 27.843 77.4059 27.275L76.012 26.0959L78.0011 25.8451C78.8972 25.732 79.6746 25.2367 80.0829 24.5188L81.0342 22.8459L81.9855 24.5188C82.3937 25.2369 83.1711 25.7322 84.0672 25.8451L86.0563 26.0959L84.663 27.275Z" fill="#36B37E"/>
<path d="M27.9308 23.623C27.6073 22.7244 26.7341 22.0695 25.683 21.9369L19.4611 21.1522L16.6907 16.2804C16.2195 15.4521 15.264 14.9297 14.2199 14.9297C13.1758 14.9297 12.2202 15.4521 11.749 16.2804L8.97864 21.1522L2.75678 21.9369C1.70584 22.0695 0.832641 22.7244 0.508905 23.623C0.18517 24.5216 0.468115 25.5056 1.23703 26.1561L5.6992 29.931L4.64881 35.2462C4.46701 36.1662 4.8869 37.0986 5.73297 37.6528C6.57904 38.2072 7.70529 38.2879 8.63995 37.8613L14.2199 35.3154L19.7998 37.8613C20.7344 38.2879 21.8609 38.2072 22.7068 37.6528C23.5526 37.0984 23.9725 36.1662 23.7909 35.2462L22.7405 29.931L27.2027 26.1561C27.9716 25.5056 28.2546 24.5217 27.9308 23.623ZM17.8483 27.275C17.1769 27.843 16.8697 28.672 17.0301 29.4835L17.3736 31.2219L15.4842 30.3597C14.6905 29.9977 13.7494 29.9975 12.9556 30.3597L11.0659 31.2219L11.4094 29.4835C11.5698 28.672 11.2627 27.843 10.5912 27.275L9.19735 26.0959L11.1865 25.8451C12.0825 25.732 12.8601 25.2367 13.2684 24.5188L14.2197 22.8459L15.171 24.5188C15.5792 25.2369 16.3566 25.7322 17.2529 25.8451L19.242 26.0959L17.8483 27.275Z" fill="#36B37E"/>
<path d="M57.6973 53.735C61.6707 51.0346 64.2392 46.7793 64.2392 42C64.2392 33.8582 56.7874 27.2344 47.6279 27.2344C38.4684 27.2344 31.0166 33.8582 31.0166 42C31.0166 46.7791 33.5851 51.0346 37.5585 53.735C28.8211 57.18 22.7109 64.9633 22.7109 73.9921V81.539C22.7109 82.898 23.9505 83.9999 25.4795 83.9999H69.7763C71.3053 83.9999 72.5449 82.898 72.5449 81.539V73.9921C72.5449 64.9633 66.4345 57.18 57.6973 53.735ZM36.5537 42C36.5537 36.5721 41.5216 32.1562 47.6279 32.1562C53.7342 32.1562 58.7021 36.5721 58.7021 42C58.7021 47.4278 53.7342 51.8437 47.6279 51.8437C41.5216 51.8437 36.5537 47.428 36.5537 42ZM67.0078 79.078H28.248V73.9921C28.248 64.4934 36.9418 56.7656 47.6279 56.7656C58.314 56.7656 67.0078 64.4934 67.0078 73.9921V79.078Z" fill="#36B37E"/>
</g>
<defs>
<clipPath id="clip0_264_64">
<rect width="94.5" height="84" fill="white" transform="translate(0.376953)"/>
</clipPath>
</defs>
</svg>
