<svg width="19" height="19" viewBox="0 0 19 19" fill="none" xmlns="http://www.w3.org/2000/svg">
<path d="M1.05365 0.140625H17.787C18.0644 0.140625 18.3304 0.245982 18.5265 0.433518C18.7227 0.621055 18.8329 0.875409 18.8329 1.14062V17.1406C18.8329 17.4058 18.7227 17.6602 18.5265 17.8477C18.3304 18.0353 18.0644 18.1406 17.787 18.1406H1.05365C0.776276 18.1406 0.510263 18.0353 0.314131 17.8477C0.117998 17.6602 0.0078125 17.4058 0.0078125 17.1406V1.14062C0.0078125 0.875409 0.117998 0.621055 0.314131 0.433518C0.510263 0.245982 0.776276 0.140625 1.05365 0.140625ZM14.9633 13.0806C14.8587 13.0306 14.8064 12.8806 14.8064 12.7796V5.14662C14.8064 5.04662 14.8587 4.89663 14.9633 4.79563L15.962 3.69063V3.64062H12.3905L9.71317 10.1186L6.6656 3.64062H2.99054V3.69063L3.93493 4.94663C4.14514 5.14663 4.19743 5.44863 4.19743 5.69963V11.2226C4.24972 11.5246 4.19743 11.8756 4.04056 12.1766L2.6224 14.0346V14.0846H6.40415V14.0346L4.98599 12.2276C4.82912 11.9256 4.77578 11.6246 4.82912 11.2736V6.25062C4.88141 6.35062 4.9337 6.35063 4.98599 6.55163L8.55648 14.1846H8.60877L12.0768 5.90063C12.0245 6.20063 12.0245 6.55262 12.0245 6.80462V12.7296C12.0245 12.8796 11.9722 12.9796 11.8676 13.0806L10.8165 14.0346V14.0846H15.9631V14.0346L14.9654 13.0806H14.9633Z" fill="black"/>
</svg>
