<svg width="19" height="19" viewBox="0 0 19 19" fill="none" xmlns="http://www.w3.org/2000/svg">
<path d="M16.0789 15.4796H13.2918V11.3026C13.2918 10.3066 13.2708 9.02462 11.838 9.02462C10.3854 9.02462 10.1637 10.1086 10.1637 11.2296V15.4796H7.37546V6.89062H10.0528V8.06063H10.0894C10.4638 7.38663 11.3737 6.67362 12.7333 6.67362C15.557 6.67362 16.08 8.45162 16.08 10.7646V15.4796H16.0789ZM4.2275 5.71562C4.01473 5.71589 3.804 5.67599 3.60738 5.59823C3.41077 5.52047 3.23214 5.40636 3.08174 5.26246C2.93134 5.11856 2.81212 4.94768 2.73092 4.75964C2.64972 4.57159 2.60813 4.37007 2.60854 4.16663C2.60875 3.86046 2.7039 3.56123 2.88197 3.30677C3.06003 3.05231 3.31301 2.85406 3.60892 2.73708C3.90482 2.6201 4.23036 2.58964 4.54436 2.64957C4.85837 2.70949 5.14674 2.8571 5.37301 3.07373C5.59928 3.29036 5.75328 3.56629 5.81555 3.86661C5.87781 4.16693 5.84554 4.47816 5.72281 4.76094C5.60009 5.04373 5.39242 5.28536 5.12607 5.4553C4.85972 5.62523 4.54665 5.71582 4.22645 5.71562H4.2275ZM5.62473 15.4796H2.82921V6.89062H5.62578V15.4796H5.62473ZM17.4751 0.140625H1.43093C0.661196 0.140625 0.0410156 0.720625 0.0410156 1.43762V16.8436C0.0410156 17.5606 0.662242 18.1406 1.42989 18.1406H17.4709C18.2386 18.1406 18.8661 17.5606 18.8661 16.8436V1.43762C18.8661 0.720625 18.2386 0.140625 17.4709 0.140625H17.4741H17.4751Z" fill="black"/>
</svg>
