<svg width="22" height="21" viewBox="0 0 22 21" fill="none" xmlns="http://www.w3.org/2000/svg">
<path d="M11.4369 0.140625C14.2784 0.140625 14.633 0.150625 15.7478 0.200625C16.8616 0.250625 17.6199 0.417625 18.2871 0.665625C18.9774 0.919625 19.5588 1.26362 20.1403 1.81862C20.6721 2.31852 21.0836 2.92321 21.3462 3.59062C21.6045 4.22762 21.7802 4.95362 21.8325 6.01862C21.8816 7.08462 21.8952 7.42362 21.8952 10.1406C21.8952 12.8576 21.8848 13.1966 21.8325 14.2626C21.7802 15.3276 21.6045 16.0526 21.3462 16.6906C21.0844 17.3584 20.6728 17.9632 20.1403 18.4626C19.6174 18.9709 18.985 19.3644 18.2871 19.6156C17.6209 19.8626 16.8616 20.0306 15.7478 20.0806C14.633 20.1276 14.2784 20.1406 11.4369 20.1406C8.59534 20.1406 8.2408 20.1306 7.12594 20.0806C6.01212 20.0306 5.25389 19.8626 4.58665 19.6156C3.88837 19.3651 3.25585 18.9716 2.73343 18.4626C2.20152 17.9628 1.79001 17.3581 1.52758 16.6906C1.26821 16.0536 1.09356 15.3276 1.04127 14.2626C0.992111 13.1966 0.978516 12.8576 0.978516 10.1406C0.978516 7.42362 0.988974 7.08462 1.04127 6.01862C1.09356 4.95262 1.26821 4.22862 1.52758 3.59062C1.78929 2.9228 2.20089 2.31795 2.73343 1.81862C3.256 1.30986 3.88848 0.916354 4.58665 0.665625C5.25389 0.417625 6.01108 0.250625 7.12594 0.200625C8.2408 0.153625 8.59534 0.140625 11.4369 0.140625ZM11.4369 5.14062C10.05 5.14062 8.71995 5.66741 7.73929 6.60509C6.75863 7.54277 6.2077 8.81454 6.2077 10.1406C6.2077 11.4667 6.75863 12.7385 7.73929 13.6762C8.71995 14.6138 10.05 15.1406 11.4369 15.1406C12.8237 15.1406 14.1538 14.6138 15.1345 13.6762C16.1151 12.7385 16.6661 11.4667 16.6661 10.1406C16.6661 8.81454 16.1151 7.54277 15.1345 6.60509C14.1538 5.66741 12.8237 5.14062 11.4369 5.14062ZM18.2348 4.89062C18.2348 4.5591 18.0971 4.24116 17.8519 4.00674C17.6067 3.77232 17.2742 3.64062 16.9275 3.64062C16.5808 3.64062 16.2483 3.77232 16.0031 4.00674C15.758 4.24116 15.6202 4.5591 15.6202 4.89062C15.6202 5.22215 15.758 5.54009 16.0031 5.77451C16.2483 6.00893 16.5808 6.14062 16.9275 6.14062C17.2742 6.14062 17.6067 6.00893 17.8519 5.77451C18.0971 5.54009 18.2348 5.22215 18.2348 4.89062ZM11.4369 7.14062C12.269 7.14062 13.067 7.4567 13.6554 8.0193C14.2438 8.58191 14.5744 9.34498 14.5744 10.1406C14.5744 10.9363 14.2438 11.6993 13.6554 12.2619C13.067 12.8246 12.269 13.1406 11.4369 13.1406C10.6048 13.1406 9.80672 12.8246 9.21832 12.2619C8.62993 11.6993 8.29937 10.9363 8.29937 10.1406C8.29937 9.34498 8.62993 8.58191 9.21832 8.0193C9.80672 7.4567 10.6048 7.14062 11.4369 7.14062Z" fill="black"/>
</svg>
