<?xml version="1.0" encoding="utf-8"?>
<!-- Generator: Adobe Illustrator 17.0.0, SVG Export Plug-In . SVG Version: 6.00 Build 0)  -->
<!DOCTYPE svg PUBLIC "-//W3C//DTD SVG 1.1//EN" "http://www.w3.org/Graphics/SVG/1.1/DTD/svg11.dtd">
<svg version="1.1" id="Layer_1" xmlns="http://www.w3.org/2000/svg" xmlns:xlink="http://www.w3.org/1999/xlink" x="0px" y="0px"
	 width="1000px" height="1000px" viewBox="0 0 1000 1000" enable-background="new 0 0 1000 1000" xml:space="preserve">
<g>
	<g>
		<g>
			<polygon fill="#E6E7E8" points="523.644,358.667 542.36,358.667 560.724,406.519 579.087,358.667 597.804,358.667 
				567.257,431.504 554.191,431.504 			"/>
			<circle fill="#E6E7E8" cx="613.07" cy="367.496" r="9.27"/>
			<rect x="605.036" y="386.213" fill="#E6E7E8" width="15.627" height="45.291"/>
			<path fill="#E6E7E8" d="M670.982,388.42l-5.12,10.241c0,0-5.298-2.826-10.065-2.826c-3.443,0-4.855,0.618-4.855,2.738
				c0,2.384,3.178,3.089,7.063,4.325c6.004,1.854,13.773,5.209,13.773,14.479c0,13.331-12.184,15.451-21.454,15.451
				c-10.948,0-17.481-6.091-17.481-6.091l6.357-10.683c0,0,6.18,5.209,11.212,5.209c2.207,0,4.855-0.266,4.855-3.267
				c0-3.267-4.944-3.531-10.065-6.181c-4.591-2.384-9.182-5.562-9.182-12.36c0-9.27,7.858-14.566,19.776-14.566
				C664.538,384.889,670.982,388.42,670.982,388.42z"/>
			<path fill="#E6E7E8" d="M698.699,407.755c0,8.917,2.384,12.36,8.917,12.36c6.532,0,8.917-3.443,8.917-12.36v-21.542h15.626
				v25.338c0,15.186-7.592,21.277-24.543,21.277c-16.951,0-24.544-6.091-24.544-21.277v-25.338h15.627V407.755z"/>
			<path fill="#E6E7E8" d="M780.357,386.213v4.326c-3.708-3.621-8.741-5.65-14.832-5.65c-13.243,0-22.513,10.77-22.513,24.014
				c0,13.242,9.27,23.925,22.513,23.925c6.18,0,11.477-2.736,14.832-6.445h0.176v5.121h15.451v-45.291H780.357z M770.204,419.497
				c-6.357,0-10.595-4.414-10.595-10.594c0-6.269,4.68-10.683,10.595-10.683c5.827,0,10.506,4.414,10.506,10.683
				C780.71,415.082,776.296,419.497,770.204,419.497z"/>
			<rect x="810.986" y="355.578" fill="#E6E7E8" width="15.627" height="75.926"/>
		</g>
	</g>
	<path fill="#E6E7E8" d="M299.439,571.706l16.594,33.191c0,0-19.083,15.765-56.214,15.765c-48.332,0-92.723-39.413-92.723-88.366
		c0-49.163,44.182-88.99,92.723-88.99c37.131,0,56.214,15.765,56.214,15.765l-16.594,33.191c0,0-13.693-10.579-33.605-10.579
		c-39.206,0-56.421,27.38-56.421,50.197c0,23.026,17.216,50.406,56.421,50.406C285.746,582.285,299.439,571.706,299.439,571.706z"/>
	<path fill="#E6E7E8" d="M688.34,558.847c-9.336,43.353-45.428,61.815-79.033,61.815c-46.049,0-83.387-39.62-83.387-88.573
		c0-49.163,35.263-88.783,83.387-88.783c30.08,0,51.028,11.201,65.964,29.248l-25.515,28.005
		c-9.955-15.972-23.023-21.99-38.167-21.99c-24.062,0-43.56,23.855-43.56,53.52c0,29.041,19.498,52.686,43.56,52.686
		c18.669,0,37.131-12.03,37.131-32.981h-39.413v-30.077h79.033V558.847z"/>
	<path fill="#E6E7E8" d="M827.925,459.485l-15.763,31.116c0,0-17.011-11.825-34.644-11.825c-13.276,0-20.327,6.017-20.327,15.351
		c0,9.543,16.18,16.387,35.677,24.686c19.083,8.09,40.034,24.269,40.034,46.671c0,40.866-31.113,55.178-64.511,55.178
		c-40.035,0-64.304-22.612-64.304-22.612l19.498-32.774c0,0,22.819,19.291,41.902,19.291c8.504,0,24.684-0.829,24.684-16.801
		c0-12.447-18.254-18.047-38.581-28.212c-20.537-10.162-32.569-26.134-32.569-43.974c0-31.945,28.212-52.274,55.8-52.274
		C805.938,443.306,827.925,459.485,827.925,459.485z"/>
	<g>
		<circle fill="#E6E7E8" cx="421.204" cy="531.984" r="18.117"/>
		<path fill="#E6E7E8" d="M493.049,484.612l-1.363,8.365c-0.134,0.828-0.909,1.497-1.737,1.497h-12.133
			c-0.828,0-1.604-0.668-1.737-1.497l-2.165-13.389c-0.134-0.802-0.882-1.684-1.657-1.951l-7.884-3.261
			c-0.721-0.374-1.871-0.267-2.539,0.214l-11.011,7.937c-0.668,0.481-1.684,0.401-2.272-0.187l-8.579-8.579
			c-0.588-0.588-0.668-1.604-0.187-2.272l7.937-11.011c0.481-0.668,0.588-1.817,0.214-2.539l-3.261-7.884
			c-0.267-0.775-1.149-1.523-1.951-1.657l-13.389-2.165c-0.828-0.134-1.47-0.909-1.47-1.737v-0.828
			c-2.619-0.241-5.265-0.374-7.937-0.374c-47.063,0-86.269,38.591-86.269,88.594c0,49.976,35.678,88.781,86.269,88.781
			c49.174,0,86.108-38.805,86.108-88.781C506.038,514.33,501.28,498.162,493.049,484.612z M483.882,538.925
			c0,0.94-0.759,1.832-1.687,1.982l-15.305,2.472c-0.928,0.15-1.932,1.002-2.231,1.893l-3.731,9.007
			c-0.422,0.84-0.317,2.151,0.233,2.913l9.079,12.576c0.55,0.762,0.457,1.93-0.208,2.594l-9.817,9.817
			c-0.665,0.665-1.832,0.758-2.594,0.208l-12.576-9.079c-0.762-0.55-2.073-0.655-2.913-0.233l-9.007,3.731
			c-0.891,0.299-1.743,1.303-1.893,2.231l-2.472,15.305c-0.15,0.928-1.042,1.687-1.982,1.687h-13.883
			c-0.94,0-1.832-0.759-1.982-1.687l-2.472-15.305c-0.15-0.928-1.002-1.932-1.893-2.231l-9.007-3.731
			c-0.84-0.422-2.151-0.317-2.913,0.233l-12.576,9.079c-0.762,0.55-1.93,0.457-2.594-0.208l-9.817-9.817
			c-0.665-0.665-0.758-1.832-0.208-2.594l9.079-12.576c0.55-0.762,0.655-2.073,0.233-2.913l-3.731-9.007
			c-0.299-0.891-1.303-1.743-2.231-1.893l-15.305-2.472c-0.928-0.15-1.687-1.042-1.687-1.982v-13.883
			c0-0.94,0.759-1.832,1.687-1.982l15.305-2.472c0.928-0.15,1.932-1.002,2.231-1.893l3.731-9.007
			c0.422-0.84,0.317-2.151-0.233-2.913l-9.079-12.576c-0.55-0.762-0.457-1.93,0.208-2.594l9.817-9.817
			c0.665-0.665,1.832-0.758,2.594-0.208l12.576,9.079c0.762,0.55,2.073,0.655,2.913,0.233l9.007-3.731
			c0.891-0.299,1.743-1.303,1.893-2.231l2.472-15.305c0.15-0.928,1.042-1.687,1.982-1.687h13.883c0.94,0,1.832,0.759,1.982,1.687
			l2.472,15.305c0.15,0.928,1.002,1.932,1.893,2.231l9.007,3.731c0.84,0.422,2.151,0.317,2.913-0.233l12.576-9.079
			c0.762-0.55,1.93-0.457,2.594,0.208l9.817,9.817c0.665,0.665,0.758,1.832,0.208,2.594l-9.079,12.576
			c-0.55,0.762-0.655,2.073-0.233,2.913l3.731,9.007c0.299,0.891,1.303,1.743,2.231,1.893l15.305,2.472
			c0.928,0.15,1.687,1.042,1.687,1.982V538.925z"/>
	</g>
	<path fill="#E6E7E8" d="M538.428,430.627l-13.389-2.165c-0.802-0.134-1.684-0.882-1.951-1.657l-3.261-7.884
		c-0.374-0.722-0.267-1.871,0.214-2.539l7.937-11.011c0.481-0.668,0.401-1.684-0.187-2.272l-8.579-8.579
		c-0.588-0.588-1.604-0.668-2.272-0.187l-11.011,7.937c-0.668,0.481-1.817,0.588-2.539,0.214l-7.884-3.26
		c-0.775-0.267-1.523-1.149-1.657-1.951l-2.165-13.389c-0.134-0.828-0.909-1.47-1.737-1.47h-12.133c-0.828,0-1.604,0.641-1.737,1.47
		l-2.165,13.389c-0.134,0.802-0.882,1.684-1.657,1.951l-7.884,3.26c-0.721,0.374-1.871,0.267-2.539-0.214l-11.011-7.937
		c-0.668-0.481-1.684-0.401-2.272,0.187l-8.579,8.579c-0.588,0.588-0.668,1.603-0.187,2.272l7.937,11.011
		c0.481,0.668,0.588,1.817,0.214,2.539l-3.261,7.884c-0.267,0.775-1.149,1.523-1.951,1.657l-13.389,2.165
		c-0.828,0.134-1.47,0.909-1.47,1.737v11.305c27.5,2.512,51.286,18.039,65.183,40.943l0.802-5.024
		c0.134-0.802,0.882-1.684,1.657-1.951l7.884-3.261c0.721-0.374,1.871-0.267,2.539,0.214l11.011,7.937
		c0.668,0.481,1.684,0.401,2.272-0.187l8.579-8.579c0.588-0.588,0.668-1.604,0.187-2.272l-7.937-11.011
		c-0.481-0.668-0.588-1.817-0.214-2.539l3.261-7.884c0.267-0.775,1.149-1.523,1.951-1.657l13.389-2.165
		c0.828-0.134,1.47-0.909,1.47-1.737v-12.133C539.898,431.536,539.257,430.761,538.428,430.627z M485.085,454.279
		c-8.766,0-15.848-7.082-15.848-15.848c0-8.739,7.082-15.848,15.848-15.848c8.739,0,15.848,7.109,15.848,15.848
		C500.933,447.197,493.824,454.279,485.085,454.279z"/>
</g>
</svg>
