<?xml version="1.0" encoding="utf-8"?>
<!-- Generator: Adobe Illustrator 17.0.0, SVG Export Plug-In . SVG Version: 6.00 Build 0)  -->
<!DOCTYPE svg PUBLIC "-//W3C//DTD SVG 1.1//EN" "http://www.w3.org/Graphics/SVG/1.1/DTD/svg11.dtd">
<svg version="1.1" id="Layer_1" xmlns="http://www.w3.org/2000/svg" xmlns:xlink="http://www.w3.org/1999/xlink" x="0px" y="0px"
	 width="1000px" height="1000px" viewBox="0 0 1000 1000" enable-background="new 0 0 1000 1000" xml:space="preserve">
<g>
	<g>
		<polygon fill="#8BC53F" points="522.472,365.083 540.261,365.083 557.714,410.564 575.168,365.083 592.957,365.083 
			563.924,434.31 551.505,434.31 		"/>
		<circle fill="#8BC53F" cx="607.466" cy="373.474" r="8.811"/>
		<rect x="599.83" y="391.264" fill="#8BC53F" width="14.852" height="43.046"/>
		<path fill="#8BC53F" d="M662.508,393.362l-4.866,9.734c0,0-5.035-2.686-9.566-2.686c-3.272,0-4.615,0.588-4.615,2.602
			c0,2.265,3.02,2.936,6.713,4.111c5.706,1.762,13.09,4.951,13.09,13.762c0,12.671-11.58,14.685-20.39,14.685
			c-10.405,0-16.614-5.789-16.614-5.789l6.041-10.154c0,0,5.874,4.951,10.657,4.951c2.098,0,4.615-0.253,4.615-3.105
			c0-3.105-4.699-3.356-9.566-5.874c-4.363-2.265-8.727-5.286-8.727-11.748c0-8.81,7.468-13.844,18.796-13.844
			C656.383,390.005,662.508,393.362,662.508,393.362z"/>
		<path fill="#8BC53F" d="M688.851,411.738c0,8.475,2.266,11.748,8.475,11.748c6.209,0,8.475-3.272,8.475-11.748v-20.474h14.851
			v24.082c0,14.433-7.216,20.223-23.326,20.223c-16.111,0-23.328-5.789-23.328-20.223v-24.082h14.852V411.738z"/>
		<path fill="#8BC53F" d="M766.462,391.264v4.112c-3.524-3.441-8.307-5.37-14.097-5.37c-12.587,0-21.397,10.237-21.397,22.824
			c0,12.586,8.81,22.74,21.397,22.74c5.873,0,10.908-2.601,14.097-6.126h0.168v4.867h14.685v-43.046H766.462z M756.813,422.898
			c-6.042,0-10.07-4.196-10.07-10.069c0-5.958,4.448-10.154,10.07-10.154c5.538,0,9.985,4.196,9.985,10.154
			C766.798,418.702,762.602,422.898,756.813,422.898z"/>
		<rect x="795.573" y="362.147" fill="#8BC53F" width="14.852" height="72.163"/>
	</g>
</g>
<path fill="#010101" d="M309.379,567.564l15.772,31.546c0,0-18.138,14.984-53.428,14.984c-45.936,0-88.128-37.459-88.128-83.986
	c0-46.727,41.992-84.58,88.128-84.58c35.29,0,53.428,14.984,53.428,14.984l-15.772,31.546c0,0-13.014-10.055-31.94-10.055
	c-37.262,0-53.625,26.023-53.625,47.709c0,21.885,16.363,47.908,53.625,47.908C296.365,577.618,309.379,567.564,309.379,567.564z"/>
<path fill="#010101" d="M679.005,555.342c-8.873,41.204-43.176,58.751-75.116,58.751c-43.767,0-79.255-37.656-79.255-84.183
	c0-46.727,33.515-84.383,79.255-84.383c28.589,0,48.499,10.646,62.695,27.799l-24.251,26.617c-9.462-15.181-21.882-20.9-36.275-20.9
	c-22.87,0-41.401,22.673-41.401,50.868c0,27.602,18.532,50.075,41.401,50.075c17.744,0,35.29-11.434,35.29-31.346h-37.459v-28.586
	h75.116V555.342z"/>
<path fill="#010101" d="M811.673,460.904l-14.981,29.574c0,0-16.168-11.239-32.927-11.239c-12.618,0-19.319,5.719-19.319,14.59
	c0,9.07,15.378,15.575,33.909,23.463c18.138,7.689,38.05,23.067,38.05,44.358c0,38.841-29.571,52.443-61.314,52.443
	c-38.05,0-61.117-21.491-61.117-21.491l18.531-31.149c0,0,21.688,18.335,39.826,18.335c8.083,0,23.46-0.788,23.46-15.969
	c0-11.83-17.35-17.153-36.669-26.814c-19.519-9.658-30.955-24.839-30.955-41.795c0-30.361,26.814-49.683,53.034-49.683
	C790.776,445.527,811.673,460.904,811.673,460.904z"/>
<g>
	<circle fill="#010101" cx="425.109" cy="529.81" r="17.219"/>
	<path fill="#010101" d="M493.394,484.786l-1.295,7.95c-0.127,0.787-0.864,1.422-1.651,1.422h-11.532
		c-0.787,0-1.524-0.635-1.651-1.422l-2.057-12.726c-0.127-0.762-0.838-1.6-1.575-1.854l-7.493-3.099
		c-0.686-0.356-1.778-0.254-2.413,0.203l-10.465,7.544c-0.635,0.457-1.6,0.381-2.159-0.178l-8.154-8.154
		c-0.559-0.559-0.635-1.524-0.178-2.159l7.544-10.465c0.457-0.635,0.559-1.727,0.203-2.413l-3.099-7.493
		c-0.254-0.737-1.092-1.448-1.854-1.575l-12.726-2.057c-0.787-0.127-1.397-0.864-1.397-1.651v-0.787
		c-2.489-0.229-5.004-0.356-7.544-0.356c-44.73,0-81.993,36.678-81.993,84.203c0,47.499,33.91,84.381,81.993,84.381
		c46.737,0,81.841-36.882,81.841-84.381C505.738,513.032,501.217,497.664,493.394,484.786z M484.681,536.408
		c0,0.893-0.722,1.741-1.604,1.883l-14.546,2.349c-0.882,0.142-1.836,0.952-2.121,1.799L462.865,551
		c-0.401,0.798-0.301,2.044,0.222,2.769l8.629,11.953c0.523,0.724,0.434,1.834-0.198,2.466l-9.33,9.331
		c-0.632,0.632-1.741,0.721-2.466,0.198l-11.952-8.629c-0.724-0.523-1.97-0.623-2.769-0.222l-8.561,3.546
		c-0.847,0.284-1.656,1.239-1.799,2.121l-2.349,14.546c-0.142,0.882-0.99,1.604-1.883,1.604h-13.195
		c-0.893,0-1.741-0.722-1.883-1.604l-2.349-14.546c-0.142-0.882-0.952-1.836-1.799-2.121l-8.561-3.546
		c-0.798-0.401-2.044-0.301-2.769,0.222l-11.952,8.629c-0.724,0.523-1.834,0.434-2.466-0.198l-9.331-9.331
		c-0.632-0.632-0.721-1.741-0.198-2.466l8.629-11.953c0.523-0.724,0.623-1.97,0.222-2.769l-3.546-8.561
		c-0.284-0.847-1.239-1.657-2.121-1.799l-14.546-2.349c-0.882-0.142-1.604-0.99-1.604-1.883v-13.195
		c0-0.893,0.722-1.741,1.604-1.883l14.546-2.349c0.882-0.142,1.836-0.952,2.121-1.799l3.546-8.561
		c0.401-0.798,0.301-2.044-0.222-2.769l-8.629-11.952c-0.523-0.724-0.434-1.834,0.198-2.466l9.331-9.33
		c0.632-0.632,1.741-0.721,2.466-0.198l11.952,8.629c0.724,0.523,1.97,0.623,2.769,0.222l8.561-3.546
		c0.847-0.284,1.656-1.239,1.799-2.121l2.349-14.546c0.142-0.882,0.99-1.604,1.883-1.604h13.195c0.893,0,1.741,0.722,1.883,1.604
		l2.349,14.546c0.142,0.882,0.952,1.836,1.799,2.121l8.561,3.546c0.798,0.401,2.044,0.301,2.769-0.222l11.952-8.629
		c0.724-0.523,1.834-0.434,2.466,0.198l9.33,9.33c0.632,0.632,0.721,1.741,0.198,2.466l-8.629,11.952
		c-0.523,0.724-0.623,1.97-0.222,2.769l3.546,8.561c0.284,0.847,1.239,1.657,2.121,1.799l14.546,2.349
		c0.882,0.142,1.604,0.99,1.604,1.883V536.408z"/>
</g>
<path fill="#8BC53F" d="M536.524,433.477l-12.726-2.057c-0.762-0.127-1.6-0.838-1.854-1.575l-3.099-7.493
	c-0.356-0.686-0.254-1.778,0.203-2.413l7.544-10.465c0.457-0.635,0.381-1.6-0.178-2.159l-8.154-8.154
	c-0.559-0.559-1.524-0.635-2.159-0.178l-10.465,7.544c-0.635,0.457-1.727,0.559-2.413,0.203l-7.493-3.099
	c-0.737-0.254-1.448-1.092-1.575-1.854l-2.057-12.726c-0.127-0.787-0.864-1.397-1.651-1.397h-11.532
	c-0.787,0-1.524,0.61-1.651,1.397l-2.057,12.726c-0.127,0.762-0.838,1.6-1.575,1.854l-7.493,3.099
	c-0.686,0.356-1.778,0.254-2.413-0.203l-10.465-7.544c-0.635-0.457-1.6-0.381-2.159,0.178l-8.154,8.154
	c-0.559,0.559-0.635,1.524-0.178,2.159l7.544,10.465c0.457,0.635,0.559,1.727,0.203,2.413l-3.099,7.493
	c-0.254,0.737-1.092,1.448-1.854,1.575l-12.726,2.057c-0.787,0.127-1.397,0.864-1.397,1.651v10.744
	c26.137,2.388,48.744,17.145,61.952,38.914l0.762-4.775c0.127-0.762,0.838-1.6,1.575-1.854l7.493-3.099
	c0.686-0.356,1.778-0.254,2.413,0.203l10.465,7.544c0.635,0.457,1.6,0.381,2.159-0.178l8.154-8.153
	c0.559-0.559,0.635-1.524,0.178-2.159l-7.544-10.465c-0.457-0.635-0.559-1.727-0.203-2.413l3.099-7.493
	c0.254-0.737,1.092-1.448,1.854-1.575l12.726-2.057c0.787-0.127,1.397-0.864,1.397-1.651v-11.532
	C537.921,434.341,537.311,433.604,536.524,433.477z M485.824,455.956c-8.331,0-15.063-6.731-15.063-15.063
	c0-8.306,6.731-15.063,15.063-15.063c8.306,0,15.063,6.757,15.063,15.063C500.887,449.225,494.13,455.956,485.824,455.956z"/>
</svg>
